<svg width="273" height="269" viewBox="0 0 273 269" fill="none" xmlns="http://www.w3.org/2000/svg">
<path d="M36.4365 153.931C38.0824 153.931 39.6106 153.931 41.1458 153.931C41.8373 153.931 42.1554 154.318 42.3145 154.945C42.6672 156.393 43.0198 157.834 43.4209 159.268C47.8052 175.036 55.8822 188.729 67.1402 200.547C78.4328 212.399 92.2218 220.238 107.802 225.099C116.757 227.891 125.913 229.263 135.29 229.215C180.502 228.98 216.599 197.989 227.021 158.771C227.436 157.213 227.864 155.655 228.293 154.049C230.312 154.049 232.256 154.049 234.213 154.049C227.906 192.445 190.819 235.579 135.034 235.206C74.9752 234.806 41.3049 187.322 36.4365 153.931Z" fill="url(#paint0_linear_161_390)" fill-opacity="0.5"/>
<path d="M231.681 104.062C229.738 104.062 228.037 104.069 226.329 104.062C225.734 104.062 225.34 103.758 225.133 103.207C224.87 102.51 224.628 101.807 224.358 101.111C215.59 78.8341 200.999 61.6111 179.741 50.2486C169.991 45.0362 159.555 41.7819 148.636 40.0582C141.922 38.9964 135.179 38.7068 128.416 39.348C110.229 41.0717 93.4457 46.6564 78.6886 57.6673C68.5992 65.1825 60.5015 74.4904 53.8144 85.0738C50.4329 90.431 47.7498 96.1191 45.6545 102.09C45.5369 102.421 45.4263 102.752 45.3156 103.083C45.0805 103.793 44.5895 104.138 43.8288 104.131C42.2936 104.117 40.7585 104.124 39.2509 104.124C38.9467 103.455 39.2993 102.986 39.4446 102.517C42.4942 92.8786 47.0098 83.9568 52.957 75.7866C66.8428 56.7158 85.0299 43.6572 107.795 37.1004C118.299 34.0805 129.045 32.9084 139.965 33.4531C165.115 34.701 186.801 44.0847 205.03 61.3353C217.097 72.7529 225.79 86.3838 231.087 102.131C231.273 102.697 231.439 103.283 231.681 104.062Z" fill="url(#paint1_linear_161_390)" fill-opacity="0.5"/>
<path d="M220.631 153.904C215.507 182.496 186.207 221.099 137.012 222.051C87.9757 222.996 56.0341 185.681 49.9072 153.938C50.8408 153.938 51.7467 153.917 52.6526 153.945C53.2265 153.966 53.4686 154.386 53.6069 154.883C53.8627 155.813 54.084 156.751 54.3814 157.668C61.1722 178.918 73.4951 195.913 93.0099 207.303C100.956 211.943 109.572 214.874 118.583 216.68C125.193 218.004 131.86 218.679 138.602 218.535C151.022 218.266 162.757 215.308 173.649 209.351C187.541 201.76 198.972 191.466 207.34 177.966C211.613 171.065 214.608 163.604 216.703 155.779C216.779 155.483 216.876 155.193 216.945 154.89C217.104 154.193 217.519 153.855 218.259 153.89C219.047 153.931 219.822 153.904 220.631 153.904Z" fill="url(#paint2_linear_161_390)" fill-opacity="0.5"/>
<path d="M217.637 104C217.311 104.055 217.097 104.11 216.883 104.124C214.158 104.262 214.158 104.234 213.086 101.759C205.258 83.7362 192.984 69.6435 175.737 60.0115C167.584 55.461 158.795 52.6549 149.597 51.0967C143.955 50.1383 138.277 49.6833 132.551 49.7867C120.083 50.0073 108.313 52.9996 97.3251 58.8325C83.3356 66.265 71.7871 76.3934 63.5026 90.0104C61.0616 94.0231 58.9732 98.2151 57.2236 102.566C56.6012 104.11 56.5943 104.11 54.9208 104.083C54.2708 104.076 53.6208 104.083 52.7563 104.083C57.9566 90.0035 66.0129 78.1653 77.0842 68.3541C93.0446 54.2131 111.709 46.8151 133.028 46.2359C177.846 45.0293 208.488 76.3934 217.637 104Z" fill="url(#paint3_linear_161_390)" fill-opacity="0.5"/>
<path d="M208.142 112.832C208.675 112.804 209.152 112.756 209.622 112.756C217.436 112.749 225.257 112.749 233.072 112.756C233.556 112.756 234.04 112.77 234.517 112.839C236.142 113.073 236.93 113.942 236.951 115.569C236.979 118.065 236.958 120.561 236.958 123.057C236.958 124.677 236.965 126.297 236.958 127.918C236.951 130.103 236.308 130.758 234.157 130.765C233.21 130.772 232.262 130.765 231.025 130.765C234.973 136.136 238.742 141.266 242.656 146.582C241.971 146.63 241.501 146.685 241.038 146.692C238.403 146.713 235.768 146.692 233.134 146.733C232.145 146.747 231.495 146.333 230.935 145.561C227.844 141.307 224.725 137.074 221.62 132.834C221.336 132.447 221.06 132.048 220.735 131.696C219.96 130.848 219.013 130.558 217.761 130.917C217.761 136.074 217.761 141.224 217.761 146.326C216.703 146.637 209.774 146.706 208.149 146.444C208.142 135.323 208.142 124.174 208.142 112.832ZM217.789 128.428C220.596 128.428 223.273 128.449 225.942 128.414C226.855 128.4 227.221 127.98 227.228 126.952C227.256 123.491 227.256 120.03 227.228 116.576C227.221 115.521 226.862 115.224 225.783 115.107C225.61 115.087 225.43 115.073 225.257 115.073C223.017 115.073 220.776 115.066 218.536 115.08C218.294 115.08 218.052 115.176 217.789 115.231C217.789 119.616 217.789 123.939 217.789 128.428Z" fill="url(#paint4_linear_161_390)" fill-opacity="0.5"/>
<path d="M111.419 120.092C111.419 120.616 111.419 121.133 111.419 121.657C111.419 129.097 111.419 136.543 111.419 143.982C111.419 146.54 111.253 146.699 108.632 146.706C106.834 146.706 105.029 146.713 103.231 146.706C102.802 146.706 102.373 146.664 101.875 146.644C101.875 135.364 101.875 124.174 101.875 112.922C102.069 112.873 102.27 112.777 102.47 112.777C105.015 112.763 107.56 112.777 110.105 112.763C111.087 112.756 111.861 113.142 112.573 113.804C114.904 115.997 117.269 118.155 119.62 120.327C119.938 120.616 120.263 120.899 120.706 121.292C120.982 119.782 120.816 118.41 120.844 117.038C120.872 115.693 120.851 114.342 120.851 112.949C121.176 112.887 121.383 112.811 121.584 112.811C123.997 112.811 126.411 112.798 128.831 112.832C130.283 112.853 130.518 113.108 130.539 114.521C130.56 116.141 130.56 117.762 130.567 119.382C130.581 127.525 130.594 135.667 130.601 143.81C130.601 144.375 130.581 144.948 130.525 145.513C130.47 146.099 130.124 146.471 129.53 146.568C129.225 146.616 128.921 146.685 128.617 146.685C126.286 146.692 123.963 146.692 121.632 146.685C121.466 146.685 121.293 146.63 120.955 146.568C120.955 146.092 120.955 145.623 120.955 145.161C120.955 140.211 120.934 135.267 120.968 130.317C120.975 129.145 120.678 128.255 119.765 127.442C117.345 125.277 115.021 123.015 112.656 120.788C112.345 120.499 112.013 120.237 111.688 119.968C111.598 120.016 111.508 120.058 111.419 120.092Z" fill="url(#paint5_linear_161_390)" fill-opacity="0.5"/>
<path d="M30.2129 112.756C31.3954 112.756 32.5295 112.749 33.6566 112.756C35.1503 112.77 36.644 112.77 38.1308 112.811C39.2649 112.839 39.6107 113.17 39.749 114.273C39.7974 114.659 39.7766 115.059 39.7766 115.452C39.7766 119.217 39.7766 122.981 39.7766 126.746C39.7766 127.228 39.7766 127.704 39.7766 128.166C40.7448 128.455 47.3488 128.518 49.0846 128.249C49.0846 123.167 49.0846 118.072 49.0846 112.894C49.5894 112.832 49.9766 112.756 50.357 112.749C52.5491 112.736 54.7481 112.722 56.9403 112.749C58.4824 112.77 58.8212 113.108 58.8212 114.604C58.8281 124.67 58.8281 134.737 58.8212 144.803C58.8212 146.209 58.4755 146.637 57.2031 146.664C54.7481 146.706 52.2863 146.678 49.8314 146.664C49.6239 146.664 49.4165 146.561 49.1191 146.478C49.1191 141.307 49.1191 136.157 49.1191 131.034C48.1095 130.731 42.3284 130.641 39.8596 130.882C39.832 131.31 39.7766 131.772 39.7766 132.227C39.7697 136.081 39.7766 139.928 39.7697 143.782C39.7697 144.265 39.7628 144.748 39.7006 145.223C39.5692 146.244 39.2926 146.609 38.3106 146.637C35.6413 146.699 32.972 146.658 30.3235 146.658C30.0538 145.603 29.9432 115.68 30.2129 112.756Z" fill="url(#paint6_linear_161_390)" fill-opacity="0.5"/>
<path d="M85.1474 112.894C88.3907 112.894 91.4541 112.894 94.649 112.894C94.6766 113.404 94.7181 113.866 94.7181 114.328C94.725 123.919 94.725 133.502 94.7181 143.093C94.7181 145.858 93.8814 146.699 91.1015 146.699C83.9027 146.706 76.697 146.699 69.4982 146.699C69.2355 146.699 68.9727 146.706 68.7099 146.678C66.7944 146.492 65.9231 145.63 65.9231 143.713C65.9023 133.647 65.9161 123.574 65.9161 113.508C65.9161 113.342 65.9576 113.17 65.9853 112.922C69.1594 112.922 72.2989 112.922 75.6251 112.922C75.6251 113.446 75.6251 113.956 75.6251 114.466C75.6113 123.312 75.5906 132.151 75.5767 140.997C75.5767 141.652 75.5836 142.314 75.639 142.962C75.7358 144.051 76.0124 144.355 77.1119 144.389C78.82 144.437 80.535 144.41 82.2499 144.417C82.6856 144.417 83.1282 144.437 83.5638 144.403C84.5873 144.32 84.9607 143.975 85.0921 142.955C85.1543 142.479 85.1405 141.997 85.1405 141.514C85.1405 132.496 85.1405 123.477 85.1405 114.459C85.1474 113.977 85.1474 113.508 85.1474 112.894Z" fill="url(#paint7_linear_161_390)" fill-opacity="0.5"/>
<path d="M181.989 128.497C185.121 128.497 188.178 128.497 191.29 128.497C191.29 129.283 191.29 129.924 191.29 130.731C188.198 130.731 185.107 130.731 181.961 130.731C181.961 135.343 181.961 139.79 181.961 144.313C182.258 144.348 182.549 144.417 182.839 144.417C184.99 144.424 187.14 144.431 189.291 144.417C190.992 144.41 191.345 144.044 191.352 142.307C191.366 140.032 191.352 137.756 191.352 135.474C191.352 135.04 191.352 134.606 191.352 134.095C191.704 134.04 191.995 133.957 192.285 133.957C194.747 133.951 197.202 133.944 199.664 133.957C200.909 133.964 201.012 134.068 201.019 135.316C201.033 138.425 201.04 141.535 201.019 144.637C201.005 146.299 200.625 146.692 199.014 146.692C190.404 146.706 181.802 146.699 173.192 146.692C172.978 146.692 172.757 146.651 172.563 146.637C172.515 146.582 172.48 146.547 172.452 146.513C172.425 146.478 172.376 146.451 172.369 146.409C172.342 146.237 172.3 146.065 172.3 145.892C172.3 135.081 172.3 124.263 172.307 113.453C172.307 113.28 172.363 113.115 172.418 112.825C172.888 112.798 173.358 112.749 173.829 112.749C182.037 112.742 190.252 112.742 198.461 112.749C200.77 112.749 201.012 112.998 201.019 115.314C201.033 118.244 201.033 121.182 201.04 124.112C201.04 125.298 200.867 125.498 199.692 125.505C196.981 125.518 194.263 125.511 191.456 125.511C191.414 125.015 191.359 124.636 191.359 124.263C191.352 121.988 191.359 119.713 191.352 117.431C191.352 115.321 191.22 115.156 189.153 115.107C187.002 115.059 184.851 115.073 182.701 115.059C182.486 115.059 182.279 115.094 181.975 115.128C181.989 119.548 181.989 123.898 181.989 128.497Z" fill="url(#paint8_linear_161_390)" fill-opacity="0.5"/>
<path d="M165.53 112.97C165.53 113.645 165.53 114.245 165.53 114.962C165.122 114.997 164.749 115.059 164.375 115.059C162.488 115.066 160.6 115.066 158.712 115.066C158.359 115.066 158.007 115.052 157.661 115.086C156.381 115.204 156.084 115.521 156.022 116.81C156.001 117.244 156.015 117.686 156.015 118.12C156.015 127.049 156.015 135.971 156.015 144.899C156.015 145.409 156.015 145.926 156.015 146.519C152.765 146.519 149.667 146.519 146.389 146.519C146.389 145.975 146.389 145.465 146.389 144.961C146.389 135.86 146.389 126.759 146.389 117.658C146.389 115.279 146.175 115.073 143.747 115.066C141.514 115.066 139.28 115.066 136.957 115.066C136.957 114.328 136.957 113.694 136.957 113.052C137.828 112.79 163.414 112.694 165.53 112.97Z" fill="url(#paint9_linear_161_390)" fill-opacity="0.5"/>
<path d="M165.074 165.9C165.074 169.051 165.081 172.195 165.074 175.346C165.067 177.118 164.596 177.601 162.798 177.601C158.414 177.615 154.03 177.621 149.639 177.601C147.848 177.594 147.357 177.097 147.357 175.339C147.35 168.996 147.35 162.66 147.357 156.317C147.357 154.497 147.841 153.966 149.708 153.945C154.092 153.904 158.476 153.904 162.868 153.938C164.52 153.952 165.067 154.552 165.074 156.193C165.081 159.426 165.074 162.66 165.074 165.9ZM153.442 155.758C153.172 157.861 153.276 174.939 153.553 175.884C155.33 175.884 157.114 175.884 158.961 175.884C158.961 169.155 158.961 162.488 158.961 155.758C157.1 155.758 155.316 155.758 153.442 155.758Z" fill="url(#paint10_linear_161_390)" fill-opacity="0.5"/>
<path d="M105.464 170.754C107.532 170.754 109.365 170.754 111.377 170.754C111.377 172.423 111.377 174.105 111.377 175.856C113.376 175.856 115.201 175.856 117.117 175.856C117.117 172.857 117.117 169.899 117.117 166.783C115.326 166.783 113.507 166.783 111.584 166.783C111.584 166.128 111.584 165.638 111.584 165.032C113.396 165.032 115.18 165.032 117.124 165.032C117.296 161.888 117.179 158.861 117.207 155.758C115.256 155.758 113.438 155.758 111.495 155.758C111.495 157.42 111.495 159.026 111.495 160.791C109.475 160.902 107.567 160.826 105.513 160.833C105.513 158.937 105.485 157.165 105.527 155.386C105.541 154.759 105.983 154.331 106.571 154.173C107.117 154.028 107.691 153.938 108.251 153.938C112.338 153.917 116.418 153.924 120.505 153.931C120.809 153.931 121.121 153.931 121.425 153.979C122.677 154.166 123.161 154.607 123.181 155.855C123.23 158.571 123.202 161.281 123.174 163.997C123.174 164.384 123.002 164.763 122.946 165.149C122.898 165.487 122.856 165.838 122.877 166.176C122.974 167.521 123.161 168.865 123.202 170.21C123.257 172.002 123.237 173.802 123.209 175.594C123.181 177.091 122.711 177.587 121.231 177.601C116.667 177.628 112.096 177.628 107.532 177.601C106.038 177.594 105.492 177.001 105.471 175.498C105.444 173.967 105.464 172.444 105.464 170.754Z" fill="url(#paint11_linear_161_390)" fill-opacity="0.5"/>
<path d="M132.358 170.713C132.358 172.478 132.358 174.126 132.358 175.849C134.308 175.849 136.126 175.849 138.146 175.849C138.173 172.864 138.153 169.872 138.159 166.783C137.682 166.742 137.309 166.68 136.929 166.68C134.073 166.673 131.223 166.673 128.368 166.673C128.146 166.673 127.925 166.68 127.711 166.673C126.493 166.638 126.334 166.486 126.334 165.301C126.328 163.811 126.348 162.322 126.348 160.833C126.348 158.951 126.334 157.068 126.348 155.186C126.355 154.124 126.535 153.924 127.545 153.917C132.814 153.911 138.083 153.924 143.36 153.931C143.533 153.931 143.706 153.966 144.037 154.007C144.093 154.435 144.155 154.876 144.238 155.489C140.276 155.489 136.431 155.489 132.51 155.489C132.51 158.682 132.51 161.722 132.51 164.894C133.028 164.928 133.54 164.99 134.052 164.99C136.424 165.004 138.796 164.997 141.168 164.997C141.52 164.997 141.873 164.983 142.219 165.011C143.685 165.135 144.162 165.59 144.183 167.086C144.217 169.934 144.217 172.781 144.183 175.629C144.162 177.015 143.623 177.58 142.26 177.587C137.606 177.615 132.945 177.615 128.291 177.587C127.081 177.58 126.459 177.008 126.39 175.849C126.314 174.498 126.348 173.133 126.369 171.782C126.376 171.278 126.542 170.747 127.144 170.734C128.838 170.685 130.539 170.713 132.358 170.713Z" fill="url(#paint12_linear_161_390)" fill-opacity="0.5"/>
<path d="M82.4849 96.388C82.4849 97.8152 82.4849 99.1941 82.4849 100.663C81.3024 100.663 80.1476 100.663 78.9028 100.663C78.9028 96.5259 78.9028 92.4304 78.9028 88.2522C79.1864 88.2177 79.4768 88.1419 79.7672 88.1419C81.6551 88.1419 83.543 88.1143 85.4308 88.1695C87.0213 88.2177 88.1278 89.0106 88.5081 90.3758C88.9161 91.8582 88.7847 93.2509 87.4916 94.3196C87.1527 94.5954 86.807 94.8574 86.3506 95.209C86.5718 95.6296 86.7516 96.0639 87.0075 96.4431C88.1001 98.0634 89.6007 99.1734 91.4678 99.7388C95.7415 101.035 97.8368 97.6911 97.1937 94.4299C97.083 93.8852 96.8548 93.3405 96.5713 92.8579C96.0665 92.0098 95.2297 91.6927 94.3169 91.9064C93.3834 92.1202 92.8785 92.7131 92.8094 93.7887C92.7679 94.485 92.7956 95.1883 92.8301 95.8847C92.8716 96.8706 93.3142 97.5394 94.3515 97.7324C94.6419 97.7876 94.9185 97.9324 95.2505 98.0565C95.0707 98.6632 94.5451 98.7322 94.1302 98.8563C92.3046 99.3872 90.1885 98.222 89.6215 96.4087C88.7986 93.7818 90.2922 91.0446 92.9477 90.3344C94.2478 89.9828 95.5547 90.0173 96.841 90.4172C99.697 91.3135 101.191 94.161 100.326 97.1257C99.4688 100.07 97.2835 101.566 94.4206 102.076C91.1636 102.655 88.2453 101.835 85.8181 99.5044C84.7393 98.4771 83.6467 97.4773 82.4849 96.388ZM82.5748 94.5126C83.7781 94.7264 84.5733 94.3334 85.0574 93.3543C85.5069 92.4442 85.6383 91.5134 84.9813 90.6378C84.352 89.7966 83.5015 89.9001 82.5679 90.0655C82.5748 91.5686 82.5748 92.9889 82.5748 94.5126Z" fill="url(#paint13_linear_161_390)" fill-opacity="0.5"/>
<path d="M181.318 23.311C180.522 22.9732 179.81 22.6767 178.994 22.3251C180.958 17.6298 182.894 13.0034 184.886 8.24609C186.068 8.73562 187.175 9.19756 188.392 9.70088C187.735 12.9759 187.092 16.175 186.449 19.3742C186.497 19.4017 186.546 19.4224 186.594 19.45C188.42 16.7404 190.245 14.0377 192.119 11.2522C193.295 11.7348 194.374 12.183 195.605 12.7001C193.648 17.3885 191.711 22.0079 189.713 26.786C188.897 26.455 188.15 26.1517 187.251 25.7793C188.468 22.8353 189.664 19.9533 190.854 17.0713C190.798 17.0368 190.736 17.0024 190.681 16.9748C188.876 19.6086 187.071 22.2424 185.225 24.9313C184.54 24.6486 183.945 24.4004 183.247 24.1039C183.876 21.0289 184.492 18.009 185.107 14.9891C185.031 14.9615 184.948 14.934 184.872 14.9064C183.703 17.6781 182.535 20.4497 181.318 23.311Z" fill="url(#paint14_linear_161_390)" fill-opacity="0.5"/>
<path d="M184.575 92.1962C184.575 94.2922 184.575 96.3261 184.575 98.4841C183.607 98.3669 182.791 98.2566 181.975 98.167C181.491 98.1118 181.29 97.7878 181.228 97.3741C181.173 96.988 181.172 96.5881 181.172 96.1951C181.166 94.2301 181.172 92.2582 181.172 90.2656C181.214 90.2312 181.283 90.1209 181.338 90.1278C183.482 90.2725 185.647 90.3001 187.763 90.6104C190.909 91.0723 192.631 94.0715 191.815 97.381C191.22 99.7803 189.319 101.49 186.864 101.869C185.19 102.125 183.551 101.987 181.899 101.635C179.637 101.146 177.355 100.753 174.997 100.297C174.79 99.539 174.748 91.8928 174.997 90.3898C176.062 90.3898 177.148 90.3898 178.42 90.3898C178.517 91.7342 178.455 93.1201 178.462 94.499C178.476 95.8986 178.462 97.2914 178.462 98.8013C179.257 98.9116 179.976 99.0495 180.709 99.1047C182.148 99.2219 183.607 99.4425 185.038 99.3667C187.68 99.2219 189.222 96.8294 188.454 94.2991C187.936 92.5616 186.788 91.8997 184.575 92.1962Z" fill="url(#paint15_linear_161_390)" fill-opacity="0.5"/>
<path d="M257.752 131.544C257.69 130.793 257.627 130.11 257.565 129.372C260.304 127.966 262.987 126.587 265.663 125.215C265.656 125.139 265.642 125.07 265.635 124.994C262.924 125.132 260.221 125.263 257.385 125.408C257.337 124.546 257.295 123.781 257.247 122.843C262.357 122.567 267.371 122.291 272.516 122.009C272.557 122.884 272.592 123.615 272.633 124.436C269.909 125.76 267.205 127.07 264.501 128.386C264.515 128.462 264.529 128.531 264.543 128.607C267.253 128.462 269.964 128.324 272.806 128.173C272.869 129.007 272.931 129.772 273 130.703C267.91 130.979 262.89 131.255 257.752 131.544Z" fill="url(#paint16_linear_161_390)" fill-opacity="0.5"/>
<path d="M139.508 93.83C139.508 94.7057 139.508 95.3055 139.508 96.057C138.257 96.057 137.053 96.057 135.781 96.057C135.781 97.4084 135.781 98.6149 135.781 99.8698C137.524 100.552 139.246 100.215 140.967 99.9043C142.302 99.6629 143.63 99.4009 144.971 99.201C145.801 99.0769 146.396 99.4285 146.693 100.215C146.61 100.325 146.576 100.435 146.507 100.449C143.906 101.228 141.341 102.138 138.699 102.731C136.459 103.234 134.163 102.986 131.881 102.324C131.881 97.5532 131.881 92.8027 131.881 87.8799C132.579 87.8799 133.222 87.8799 133.866 87.8799C135.401 87.8868 136.936 87.8868 138.471 87.9075C140.2 87.9281 140.345 88.1143 140.165 90.0035C139.439 90.0035 138.699 90.0035 137.966 90.0035C137.275 90.0035 136.583 90.0035 135.802 90.0035C135.802 91.2445 135.802 92.4511 135.802 93.8369C137.005 93.83 138.194 93.83 139.508 93.83Z" fill="url(#paint17_linear_161_390)" fill-opacity="0.5"/>
<path d="M96.8272 12.6794C97.8369 12.3899 98.7428 12.1279 99.7593 11.8314C99.1646 9.76987 98.5975 7.80487 97.9821 5.6882C98.8811 5.40551 99.7247 5.13662 100.693 4.83325C102.152 9.75608 103.577 14.5617 105.029 19.4707C104.109 19.7465 103.286 19.9878 102.318 20.2774C101.709 18.271 101.129 16.3612 100.499 14.3135C99.5104 14.61 98.5699 14.8926 97.5672 15.196C98.1481 17.1886 98.6944 19.0708 99.2891 21.1186C98.4039 21.4012 97.5603 21.6701 96.599 21.9735C95.1399 17.0645 93.7154 12.252 92.2632 7.33603C93.1691 7.06714 93.992 6.81893 94.9532 6.52935C95.5894 8.61155 96.198 10.5972 96.8272 12.6794Z" fill="url(#paint18_linear_161_390)" fill-opacity="0.5"/>
<path d="M233.88 52.7929C232.255 54.1512 230.713 55.4267 229.067 56.7987C228.452 56.0817 227.899 55.4267 227.235 54.6545C231.142 51.3657 235.008 48.1045 238.949 44.7812C240.097 46.1602 241.252 47.415 242.255 48.7802C243.278 50.166 243.057 51.7242 241.812 52.9239C241.404 53.3169 240.927 53.641 240.519 54.0408C239.648 54.8889 238.666 55.3577 237.456 55.013C237.255 55.7094 237.186 56.4264 236.847 56.9918C236.522 57.5296 235.934 57.9226 235.45 58.3569C234.641 59.0809 233.687 59.6738 233.327 60.7908C233.272 60.9562 233.016 61.0597 232.892 61.17C232.732 61.1148 232.636 61.1079 232.58 61.0528C230.879 59.4049 230.9 58.681 232.698 57.1297C233.23 56.6746 233.777 56.2403 234.302 55.7714C235.36 54.8337 235.381 54.4821 234.447 53.3859C234.309 53.2204 234.15 53.0687 233.88 52.7929ZM235.678 51.2761C236.847 53.1445 237.2 53.2135 238.707 51.9449C238.776 51.8897 238.846 51.8345 238.908 51.7794C240.567 50.3798 240.574 50.2832 239.115 48.725C239.067 48.6768 238.97 48.6768 238.811 48.6216C237.788 49.4903 236.729 50.3866 235.678 51.2761Z" fill="url(#paint19_linear_161_390)" fill-opacity="0.5"/>
<path d="M155.005 4.70217C154.742 7.28769 154.542 10.08 154.141 12.8448C153.816 15.1132 151.893 16.3956 149.528 16.1474C147.094 15.8923 145.531 14.2169 145.697 11.8451C145.877 9.232 146.167 6.6258 146.451 4.0196C146.831 0.558452 149.936 -0.35165 152.481 0.59982C154.148 1.23413 155.033 2.62686 155.005 4.70217ZM152.135 4.72975C152.177 4.06096 152.204 3.40597 151.513 2.99228C150.455 2.35797 149.452 2.9716 149.293 4.43328C149.023 6.90848 148.788 9.38368 148.553 11.8658C148.456 12.9 148.871 13.4722 149.729 13.5826C150.683 13.7067 151.229 13.2585 151.354 12.1554C151.637 9.68015 151.879 7.20495 152.135 4.72975Z" fill="url(#paint20_linear_161_390)" fill-opacity="0.5"/>
<path d="M208.716 21.6632C208.536 22.2837 208.467 22.9663 208.163 23.5179C206.793 25.9586 205.417 28.3925 203.93 30.7642C202.879 32.4465 201.047 32.9499 199.214 32.2742C197.188 31.5296 195.992 29.9093 196.172 28.0339C196.227 27.441 196.407 26.8136 196.697 26.2965C197.997 23.9729 199.325 21.6563 200.715 19.388C201.745 17.7057 203.46 17.0851 205.244 17.6022C207.264 18.1883 208.605 19.7879 208.716 21.6632ZM200.514 29.8886C201.012 29.9093 201.372 29.5439 201.648 29.0681C202.969 26.8067 204.29 24.5383 205.604 22.27C205.666 22.1596 205.722 22.0355 205.763 21.9114C205.984 21.2564 205.791 20.7255 205.189 20.3325C204.622 19.9602 203.979 19.9878 203.509 20.4429C203.322 20.6221 203.17 20.8427 203.038 21.0703C201.78 23.2214 200.535 25.3726 199.283 27.5306C199.173 27.7168 199.076 27.9167 199.014 28.1236C198.772 29.0543 199.436 29.8955 200.514 29.8886Z" fill="url(#paint21_linear_161_390)" fill-opacity="0.5"/>
<path d="M222.401 49.042C220.921 48.9041 219.587 47.9457 218.784 46.291C218.031 44.7466 218.328 43.2711 219.435 42.0301C221.239 40.003 223.086 38.0105 224.994 36.0868C226.682 34.3907 228.957 34.4528 230.762 36.1006C232.567 37.7485 232.829 40.0306 231.266 41.8232C229.455 43.8985 227.539 45.8842 225.631 47.8768C224.808 48.7317 223.853 49.0558 222.401 49.042ZM227.837 37.5554C227.588 37.7416 227.124 38.0036 226.779 38.369C225.112 40.1134 223.48 41.8784 221.834 43.6434C221.682 43.802 221.537 43.9675 221.419 44.1468C220.977 44.8293 221.094 45.4981 221.717 46.0014C222.401 46.5599 223.003 46.4979 223.777 45.6774C225.527 43.8365 227.249 41.968 228.978 40.1134C229.123 39.9548 229.254 39.7755 229.372 39.5894C230.008 38.6034 228.86 37.5347 227.837 37.5554Z" fill="url(#paint22_linear_161_390)" fill-opacity="0.5"/>
<path d="M118.458 13.6102C118.465 15.8786 117.013 17.361 114.509 17.6781C112.38 17.947 110.54 16.6646 110.049 14.4859C109.703 12.9553 109.461 11.397 109.178 9.85263C108.97 8.69432 108.715 7.53601 108.583 6.3708C108.334 4.10244 109.655 2.42013 111.951 1.97198C114.378 1.49624 116.335 2.48908 116.868 4.73676C117.518 7.49464 117.939 10.3077 118.458 13.0931C118.486 13.2517 118.458 13.431 118.458 13.6102ZM115.692 13.624C115.554 12.8863 115.402 12.1141 115.256 11.3419C114.904 9.45274 114.572 7.55669 114.184 5.67444C113.991 4.71607 113.451 4.29549 112.67 4.37134C111.757 4.45407 111.259 5.12286 111.425 6.15017C111.66 7.57048 111.944 8.99079 112.207 10.4042C112.428 11.6108 112.622 12.8174 112.898 14.0101C113.092 14.8513 113.68 15.2236 114.433 15.1133C115.194 15.003 115.692 14.4238 115.692 13.624Z" fill="url(#paint23_linear_161_390)" fill-opacity="0.5"/>
<path d="M267.108 146.333C267.184 145.492 267.247 144.713 267.33 143.789C267.876 143.817 268.388 143.858 268.899 143.858C269.874 143.858 270.434 143.348 270.462 142.465C270.49 141.652 270.013 141.08 269.107 141.004C266.479 140.797 263.851 140.618 261.223 140.466C260.145 140.404 259.578 140.928 259.536 141.852C259.495 142.769 260.027 143.279 261.12 143.369C261.555 143.403 261.998 143.417 262.434 143.431C262.558 143.431 262.682 143.382 262.855 143.341C262.945 142.962 263.028 142.589 263.146 142.072C263.754 142.114 264.377 142.162 265.11 142.21C265.013 143.624 264.93 144.913 264.833 146.354C262.205 146.182 259.688 146.016 257.199 145.851C257.095 144.444 257.095 144.444 258.091 143.961C257.966 143.782 257.849 143.61 257.731 143.437C256.051 141.024 257.544 137.825 260.483 137.598C261.182 137.543 261.887 137.598 262.586 137.639C264.778 137.784 266.963 137.949 269.155 138.108C271.562 138.28 273.09 140.08 272.959 142.569C272.827 145.072 271.292 146.554 268.83 146.533C268.436 146.533 268.042 146.506 267.648 146.478C267.53 146.471 267.413 146.416 267.108 146.333Z" fill="url(#paint24_linear_161_390)" fill-opacity="0.5"/>
<path d="M72.9698 33.1429C72.0016 33.7772 71.2755 34.246 70.4734 34.7769C69.7957 34.0254 69.1595 33.3152 68.4749 32.5568C67.6658 33.0808 66.9742 33.529 66.2412 34.0047C66.6216 34.9562 66.9742 35.8318 67.3684 36.8108C66.67 37.2866 65.9992 37.7416 65.2039 38.2794C63.2124 33.46 61.2692 28.744 59.2568 23.8764C60.1282 23.2972 60.9856 22.7318 61.7048 22.2561C65.4736 25.9034 69.1595 29.4542 72.9698 33.1429ZM65.2593 31.8811C65.8471 31.4743 66.2827 31.171 66.7806 30.8331C65.6189 29.5576 64.5747 28.4131 63.5235 27.2617C63.4475 27.3168 63.3714 27.3789 63.2884 27.434C63.9246 28.8474 64.547 30.2678 65.2593 31.8811Z" fill="url(#paint25_linear_161_390)" fill-opacity="0.5"/>
<path d="M248.741 67.0649C248.222 66.2927 247.794 65.6446 247.323 64.9413C247.856 64.5759 248.34 64.2794 248.789 63.9347C249.682 63.2659 249.806 62.6109 249.239 61.8111C248.7 61.0527 248.036 60.8872 247.185 61.4319C244.972 62.8522 242.766 64.2932 240.588 65.7687C239.758 66.3272 239.648 67.0442 240.139 67.8026C240.636 68.5748 241.314 68.7403 242.179 68.2715C242.676 68.0026 243.14 67.6785 243.748 67.2993C244.205 67.9612 244.647 68.5886 245.131 69.2988C244.281 70.0158 243.451 70.6226 242.455 70.9535C241.148 71.381 239.931 71.1741 238.894 70.2434C236.646 68.2232 236.494 64.8793 239.329 63.1211C241.376 61.8525 243.354 60.4667 245.387 59.1636C248.437 57.1986 251.334 59.2118 252.047 61.949C252.385 63.2452 252.067 64.4104 251.099 65.3136C250.408 65.948 249.585 66.4444 248.741 67.0649Z" fill="url(#paint26_linear_161_390)" fill-opacity="0.5"/>
<path d="M256.058 92.334C256.348 93.1338 256.597 93.8233 256.915 94.6782C255.995 94.9816 255.165 95.3677 254.287 95.5263C252.309 95.8848 250.816 94.9609 250.041 93.0373C249.225 90.9965 249.619 88.7833 251.417 87.9559C254.349 86.6045 257.378 85.3152 260.497 84.5775C264.176 83.7157 265.905 87.9766 265.103 90.2725C264.798 91.1344 264.211 91.7894 263.388 92.1824C262.606 92.5547 261.79 92.8443 260.898 93.2028C260.601 92.403 260.338 91.7135 260.027 90.8793C260.642 90.6242 261.244 90.4035 261.811 90.1277C262.862 89.6175 263.056 88.6316 262.316 87.7491C261.853 87.1975 261.279 87.1561 260.649 87.3836C259.702 87.7284 258.761 88.08 257.814 88.4316C256.334 88.9763 254.847 89.5003 253.374 90.0726C252.309 90.4932 252.012 91.2102 252.427 92.141C252.738 92.8374 253.25 93.1407 254.011 92.9684C254.647 92.8374 255.255 92.5891 256.058 92.334Z" fill="url(#paint27_linear_161_390)" fill-opacity="0.5"/>
<path d="M86.98 14.2513C86.2401 14.5823 85.5278 14.8925 84.7602 15.2373C84.5044 14.796 84.3177 14.4099 84.0687 14.0583C83.557 13.3412 82.8032 13.1964 82.1255 13.6584C81.5032 14.079 81.3095 14.8098 81.8282 15.4855C82.2016 15.9819 82.7548 16.4301 83.3219 16.6714C84.1586 17.0299 85.0991 17.1402 85.9566 17.4574C86.8141 17.7676 87.6992 18.0917 88.4392 18.6019C90.0366 19.6913 90.6866 21.9045 90.0573 23.6212C89.4626 25.2346 87.5125 26.4825 85.6661 26.3929C84.5044 26.3378 83.5362 25.862 82.8724 24.8968C82.5059 24.3659 82.2569 23.7591 81.8904 23.0766C82.3607 22.8421 82.741 22.6491 83.1282 22.4767C83.4809 22.3181 83.8543 22.1871 84.2554 22.0286C84.4836 22.4491 84.6703 22.849 84.9055 23.2076C85.3826 23.9177 86.1018 24.0901 86.8486 23.704C87.5747 23.3317 87.8237 22.6146 87.471 21.8079C87.1598 21.084 86.5928 20.6014 85.8598 20.36C84.9884 20.0705 84.0964 19.8429 83.2181 19.5878C82.0702 19.25 80.9776 18.8225 80.1201 17.94C78.7578 16.5473 78.4881 14.3892 79.477 12.8724C80.4935 11.3142 82.7756 10.5351 84.456 11.1763C85.8598 11.7072 86.5305 12.831 86.98 14.2513Z" fill="url(#paint28_linear_161_390)" fill-opacity="0.5"/>
<path d="M148.519 90.3965C149.522 90.3965 150.338 90.3965 151.25 90.3965C151.25 93.7473 151.25 97.0499 151.25 100.38C149.95 100.966 148.747 100.69 147.682 99.5113C146.714 98.4357 145.774 97.3394 144.812 96.257C144.619 96.0363 144.39 95.8502 144.01 95.4986C143.962 96.5052 143.927 97.3119 143.886 98.222C143.077 98.3874 142.274 98.5529 141.382 98.7391C141.382 95.9329 141.382 93.2371 141.382 90.5275C143.07 89.9828 143.865 90.1758 144.944 91.4376C145.774 92.4028 146.576 93.3888 147.399 94.3609C147.668 94.6781 147.973 94.9677 148.519 95.209C148.519 93.6163 148.519 92.0374 148.519 90.3965Z" fill="url(#paint29_linear_161_390)" fill-opacity="0.5"/>
<path d="M259.46 75.2695C259.868 76.0624 260.241 76.7932 260.712 77.7033C260.186 77.7929 259.785 77.8826 259.377 77.9239C256.804 78.1997 254.232 78.4548 251.666 78.7582C251.162 78.8202 250.664 79.0547 250.2 79.2822C248.672 80.0268 247.158 80.8128 245.546 81.6195C245.118 80.7921 244.724 80.0268 244.26 79.1167C245.242 78.6134 246.141 78.0963 247.089 77.6826C248.963 76.8621 250.546 75.7107 251.881 74.1318C253.257 72.4978 254.792 70.9947 256.39 69.2917C256.86 70.1605 257.282 70.9396 257.773 71.8497C256.32 73.2838 254.875 74.711 253.209 76.3519C255.477 75.9658 257.434 75.6211 259.46 75.2695Z" fill="url(#paint30_linear_161_390)" fill-opacity="0.5"/>
<path d="M162.799 2.24072C165.157 2.74404 167.335 3.20598 169.638 3.69551C169.493 4.4884 169.354 5.19166 169.202 6.01902C167.805 5.75013 166.533 5.50882 165.094 5.23303C164.818 6.46718 164.548 7.68065 164.244 9.01133C165.226 9.25264 166.146 9.48017 167.211 9.73527C167.079 10.4661 166.955 11.1694 166.809 12.0174C165.786 11.8382 164.859 11.6727 163.767 11.4796C163.31 13.5343 162.847 15.5958 162.363 17.7538C161.422 17.547 160.586 17.3677 159.625 17.154C160.683 12.1691 161.727 7.27386 162.799 2.24072Z" fill="url(#paint31_linear_161_390)" fill-opacity="0.5"/>
<path d="M210.97 39.8376C210.168 39.2378 209.469 38.7275 208.681 38.1415C211.226 34.7148 213.722 31.3502 216.253 27.9442C215.507 27.372 214.85 26.8686 214.075 26.2757C214.566 25.6069 215.043 24.9657 215.583 24.2349C217.844 25.9034 220.022 27.5167 222.311 29.1991C221.813 29.8678 221.357 30.4884 220.824 31.2123C220.077 30.709 219.372 30.2333 218.549 29.6748C216.032 33.0394 213.556 36.3696 210.97 39.8376Z" fill="url(#paint32_linear_161_390)" fill-opacity="0.5"/>
<path d="M126.916 15.6372C126.591 11.4039 126.272 7.28082 125.954 3.06815C125.028 3.06815 124.17 3.06815 123.202 3.06815C123.147 2.26147 123.098 1.53752 123.036 0.682576C125.775 0.296473 128.478 0.255104 131.286 0C131.39 0.83426 131.48 1.59268 131.583 2.44073C130.671 2.56483 129.855 2.66825 128.873 2.79925C129.011 6.97745 129.53 11.1281 129.716 15.3752C128.748 15.4648 127.891 15.5407 126.916 15.6372Z" fill="url(#paint33_linear_161_390)" fill-opacity="0.5"/>
<path d="M118.707 100.553C117.345 100.553 116.176 100.553 115.07 100.553C114.786 99.7873 114.689 98.9116 114.205 98.4359C113.846 98.0843 112.967 98.167 112.324 98.1946C111.252 98.2359 111.142 98.4497 110.872 100.497C110.132 100.497 109.371 100.497 108.493 100.497C109.634 97.1328 110.754 93.8096 111.909 90.4036C112.815 90.4036 113.763 90.4036 114.89 90.4036C116.121 93.6717 117.372 97.0087 118.707 100.553ZM112.988 94.2439C112.877 94.2508 112.767 94.2646 112.656 94.2715C112.463 94.9472 112.269 95.6229 112.055 96.3675C112.691 96.3675 113.14 96.3675 113.749 96.3675C113.465 95.5746 113.223 94.9058 112.988 94.2439Z" fill="url(#paint34_linear_161_390)" fill-opacity="0.5"/>
<path d="M170.191 94.3127C171.007 94.354 171.657 94.3816 172.362 94.4161C172.362 95.0642 172.362 95.6158 172.362 96.2708C171.65 96.3052 170.958 96.3328 170.163 96.3673C170.163 97.0843 170.163 97.7876 170.163 98.6494C171.318 98.6494 172.431 98.6494 173.628 98.6494C173.559 99.3251 173.503 99.8422 173.441 100.449C171.159 100.449 168.905 100.449 166.574 100.449C166.574 97.0843 166.574 93.7335 166.574 90.2793C168.566 90.2793 170.488 90.2517 172.411 90.2931C173.199 90.3068 173.296 90.5413 173.386 92.0581C172.355 92.0581 171.332 92.0581 170.191 92.0581C170.191 92.8234 170.191 93.5267 170.191 94.3127Z" fill="url(#paint35_linear_161_390)" fill-opacity="0.5"/>
<path d="M253.347 101.987C258.319 100.746 263.18 99.5321 268.187 98.2842C268.429 99.2356 268.643 100.056 268.885 101.001C264.764 102.042 260.705 103.062 256.548 104.117C256.867 105.462 257.164 106.723 257.503 108.144C256.707 108.35 255.933 108.557 255.055 108.785C254.467 106.461 253.921 104.276 253.347 101.987Z" fill="url(#paint36_linear_161_390)" fill-opacity="0.5"/>
<path d="M153.145 90.3896C155.372 90.3896 157.502 90.3896 159.735 90.3896C159.825 90.9619 159.915 91.4928 160.019 92.1271C158.857 92.1271 157.82 92.1271 156.699 92.1271C156.699 92.9683 156.699 93.7336 156.699 94.623C157.066 94.6506 157.446 94.685 157.82 94.7057C158.159 94.7264 158.504 94.7471 158.926 94.7678C158.926 95.3676 158.926 95.9123 158.926 96.5673C158.2 96.5673 157.474 96.5673 156.665 96.5673C156.665 97.9118 156.665 99.1528 156.665 100.484C155.469 100.484 154.348 100.484 153.145 100.484C153.145 97.1327 153.145 93.7887 153.145 90.3896Z" fill="url(#paint37_linear_161_390)" fill-opacity="0.5"/>
<path d="M109.489 90.4378C108.929 91.5893 108.535 92.6648 107.919 93.6025C106.536 95.7054 106.198 97.9531 106.709 100.366C105.803 100.67 104.655 100.711 103.017 100.49C103.058 99.8284 103.106 99.1528 103.134 98.4702C103.189 96.8982 102.788 95.471 101.924 94.1265C101.198 92.9958 100.61 91.7754 99.9531 90.5826C102.09 89.8794 103.183 90.2931 104.137 92.0857C104.524 92.8165 104.891 93.5543 105.326 94.4092C106.163 93.1613 106.855 91.9892 106.848 90.4378C107.671 90.4378 108.473 90.4378 109.489 90.4378Z" fill="url(#paint38_linear_161_390)" fill-opacity="0.5"/>
<path d="M127.04 100.511C124.592 100.511 122.282 100.511 119.883 100.511C119.883 97.1534 119.883 93.8509 119.883 90.438C121.017 90.438 122.123 90.438 123.403 90.438C123.534 93.0511 123.375 95.6987 123.493 98.4565C124.717 98.4565 125.837 98.4565 127.04 98.4565C127.04 99.1736 127.04 99.7665 127.04 100.511Z" fill="url(#paint39_linear_161_390)" fill-opacity="0.5"/>
<path d="M271.14 111.708C271.299 112.728 271.423 113.535 271.568 114.493C266.513 115.286 261.555 116.059 256.473 116.858C256.32 115.914 256.182 115.073 256.016 114.073C261.064 113.287 266.022 112.508 271.14 111.708Z" fill="url(#paint40_linear_161_390)" fill-opacity="0.5"/>
<path d="M161.194 90.376C162.418 90.376 163.504 90.376 164.666 90.376C164.666 93.7475 164.666 97.057 164.666 100.456C163.525 100.456 162.411 100.456 161.194 100.456C161.194 97.1328 161.194 93.7889 161.194 90.376Z" fill="url(#paint41_linear_161_390)" fill-opacity="0.5"/>
<path d="M188.613 241.991C188.924 241.798 189.063 241.694 189.215 241.618C189.36 241.542 189.526 241.501 189.775 241.405C191.898 245.755 194 250.064 196.151 254.477C195.826 254.691 195.522 254.891 195.051 255.194C192.894 250.761 190.778 246.431 188.613 241.991Z" fill="url(#paint42_linear_161_390)" fill-opacity="0.5"/>
<path d="M175.917 247.189C176.353 247.017 176.664 246.893 177.113 246.713C178.752 251.333 180.37 255.883 181.982 260.413C181.795 260.572 181.712 260.689 181.594 260.73C181.401 260.806 181.186 260.841 180.813 260.937C179.181 256.352 177.563 251.809 175.917 247.189Z" fill="url(#paint43_linear_161_390)" fill-opacity="0.5"/>
<path d="M136.749 254.38C136.749 259.138 136.749 263.874 136.749 268.694C136.444 268.694 136.119 268.694 135.67 268.694C135.67 263.902 135.67 259.165 135.67 254.367C135.808 254.346 135.967 254.291 136.133 254.291C136.292 254.291 136.458 254.339 136.749 254.38Z" fill="url(#paint44_linear_161_390)" fill-opacity="0.5"/>
<path d="M189.187 257.745C188.724 257.938 188.42 258.069 187.998 258.241C186.103 253.725 184.236 249.278 182.341 244.769C182.742 244.569 183.033 244.417 183.489 244.19C185.384 248.699 187.251 253.146 189.187 257.745Z" fill="url(#paint45_linear_161_390)" fill-opacity="0.5"/>
<path d="M49.126 219.017C49.2643 219.128 49.4994 219.314 49.8521 219.596C46.3668 223.099 43.0129 226.464 39.5829 229.918C39.2717 229.649 39.009 229.415 38.7393 229.18C42.2176 225.774 45.6199 222.444 49.126 219.017Z" fill="url(#paint46_linear_161_390)" fill-opacity="0.5"/>
<path d="M222.062 218.231C222.374 217.901 222.581 217.687 222.906 217.342C226.364 220.72 229.787 224.058 233.258 227.443C232.996 227.788 232.774 228.07 232.498 228.422C228.964 224.974 225.569 221.651 222.062 218.231Z" fill="url(#paint47_linear_161_390)" fill-opacity="0.5"/>
<path d="M57.2927 244.631C56.9124 244.355 56.6358 244.162 56.29 243.914C59.0631 239.963 61.7946 236.068 64.5814 232.104C64.9341 232.324 65.2176 232.49 65.6325 232.745C62.8457 236.702 60.1142 240.598 57.2927 244.631Z" fill="url(#paint48_linear_161_390)" fill-opacity="0.5"/>
<path d="M53.6275 47.5322C53.2887 47.8287 53.0397 48.0493 52.7009 48.3458C49.4092 44.8226 46.166 41.3546 42.8467 37.8038C43.1302 37.5073 43.3792 37.2453 43.6973 36.9075C47.0166 40.4582 50.2598 43.9263 53.6275 47.5322Z" fill="url(#paint49_linear_161_390)" fill-opacity="0.5"/>
<path d="M235.208 202.463C235.45 202.105 235.63 201.829 235.893 201.443C239.903 204.18 243.866 206.883 247.884 209.62C247.635 209.985 247.448 210.261 247.192 210.634C243.174 207.903 239.212 205.2 235.208 202.463Z" fill="url(#paint50_linear_161_390)" fill-opacity="0.5"/>
<path d="M39.7766 208.593C40.0671 208.944 40.2814 209.199 40.565 209.537C36.7547 212.564 32.9928 215.542 29.1963 218.555C28.9266 218.218 28.7122 217.956 28.4287 217.597C32.1975 214.605 35.9179 211.654 39.7766 208.593Z" fill="url(#paint51_linear_161_390)" fill-opacity="0.5"/>
<path d="M58.7797 43.0023C58.4546 43.2919 58.2057 43.5125 57.8599 43.8227C54.7481 40.0927 51.6846 36.4178 48.5728 32.6878C48.8909 32.4051 49.1467 32.1914 49.4994 31.8811C52.6043 35.5974 55.6678 39.2722 58.7797 43.0023Z" fill="url(#paint52_linear_161_390)" fill-opacity="0.5"/>
<path d="M35.6897 68.2025C35.3993 68.5817 35.1987 68.8437 34.9429 69.1816C30.9459 66.4788 27.0042 63.8106 22.9795 61.0941C23.2077 60.7287 23.4082 60.4253 23.6364 60.053C27.6542 62.7695 31.5959 65.4377 35.6897 68.2025Z" fill="url(#paint53_linear_161_390)" fill-opacity="0.5"/>
<path d="M142.392 254.098C142.862 254.063 143.159 254.043 143.609 254.008C143.927 258.827 144.238 263.592 144.556 268.425C144.113 268.459 143.83 268.48 143.346 268.515C143.028 263.709 142.717 258.979 142.392 254.098Z" fill="url(#paint54_linear_161_390)" fill-opacity="0.5"/>
<path d="M76.2405 239.322C76.6209 239.522 76.9113 239.681 77.3262 239.895C75.0165 244.149 72.7276 248.347 70.411 252.608C70.0237 252.408 69.7264 252.257 69.3184 252.05C71.635 247.789 73.917 243.583 76.2405 239.322Z" fill="url(#paint55_linear_161_390)" fill-opacity="0.5"/>
<path d="M59.1186 227.925C59.4782 228.215 59.7133 228.401 60.0798 228.697C57.0855 232.483 54.1189 236.24 51.1108 240.046C50.7858 239.826 50.5092 239.639 50.0942 239.35C53.0955 235.544 56.0621 231.793 59.1186 227.925Z" fill="url(#paint56_linear_161_390)" fill-opacity="0.5"/>
<path d="M53.9458 223.451C54.3054 223.789 54.5267 223.995 54.8379 224.292C51.5808 227.96 48.4205 231.517 45.1842 235.165C44.8592 234.896 44.5826 234.668 44.2368 234.379C47.4732 230.725 50.6403 227.167 53.9458 223.451Z" fill="url(#paint57_linear_161_390)" fill-opacity="0.5"/>
<path d="M256.12 197.12C255.898 197.513 255.733 197.796 255.511 198.182C251.258 195.865 247.082 193.583 242.822 191.259C243.002 190.894 243.147 190.604 243.368 190.163C247.635 192.493 251.839 194.789 256.12 197.12Z" fill="url(#paint58_linear_161_390)" fill-opacity="0.5"/>
<path d="M16.8871 111.977C16.8318 112.384 16.7834 112.708 16.7212 113.183C11.9358 112.225 7.24036 111.287 2.50342 110.343C2.52416 110.046 2.51033 109.881 2.55182 109.722C2.59332 109.564 2.6763 109.412 2.78694 109.157C7.46856 110.095 12.1364 111.025 16.8871 111.977Z" fill="url(#paint59_linear_161_390)" fill-opacity="0.5"/>
<path d="M202.907 250.816C202.492 251.043 202.202 251.209 201.835 251.409C199.477 247.203 197.161 243.059 194.782 238.819C195.114 238.605 195.418 238.412 195.819 238.15C198.184 242.39 200.508 246.527 202.907 250.816Z" fill="url(#paint60_linear_161_390)" fill-opacity="0.5"/>
<path d="M77.257 256.09C76.8283 255.856 76.5378 255.69 76.1782 255.49C78.239 251.14 80.2651 246.851 82.3397 242.459C82.72 242.632 83.0451 242.777 83.46 242.97C81.3854 247.355 79.3592 251.643 77.257 256.09Z" fill="url(#paint61_linear_161_390)" fill-opacity="0.5"/>
<path d="M221.966 237.868C221.627 238.136 221.357 238.35 220.997 238.633C217.962 234.896 214.967 231.207 211.904 227.429C212.201 227.16 212.457 226.912 212.81 226.595C215.866 230.359 218.861 234.048 221.966 237.868Z" fill="url(#paint62_linear_161_390)" fill-opacity="0.5"/>
<path d="M15.1167 74.2492C15.3242 73.8631 15.4763 73.5735 15.6907 73.1667C19.985 75.4144 24.2241 77.6345 28.5323 79.8891C28.3386 80.2545 28.1934 80.551 27.9652 80.9785C23.6639 78.7239 19.418 76.5038 15.1167 74.2492Z" fill="url(#paint63_linear_161_390)" fill-opacity="0.5"/>
<path d="M8.81006 88.2247C8.98985 87.7904 9.12124 87.487 9.28721 87.094C13.7821 88.8315 18.2148 90.5414 22.765 92.2995C22.6336 92.6925 22.5161 93.0372 22.3708 93.4578C17.8414 91.7203 13.4087 90.0036 8.81006 88.2247Z" fill="url(#paint64_linear_161_390)" fill-opacity="0.5"/>
<path d="M32.0178 197.533C32.2598 197.878 32.4465 198.154 32.7162 198.54C28.5947 201.098 24.5217 203.628 20.3933 206.193C20.1581 205.848 19.9645 205.573 19.6948 205.18C23.8232 202.629 27.8894 200.098 32.0178 197.533Z" fill="url(#paint65_linear_161_390)" fill-opacity="0.5"/>
<path d="M256.258 152.642C256.362 152.18 256.417 151.897 256.514 151.456C261.244 152.208 265.933 152.945 270.732 153.704C270.704 154.117 270.677 154.476 270.649 154.931C265.836 154.166 261.14 153.421 256.258 152.642Z" fill="url(#paint66_linear_161_390)" fill-opacity="0.5"/>
<path d="M15.7529 152.807C15.8013 153.262 15.8359 153.586 15.8843 154.021C11.1059 154.745 6.40352 155.462 1.62508 156.193C1.53519 155.779 1.46603 155.455 1.3623 155.007C6.18915 154.269 10.933 153.545 15.7529 152.807Z" fill="url(#paint67_linear_161_390)" fill-opacity="0.5"/>
<path d="M262.655 183.255C262.482 183.682 262.357 183.985 262.192 184.385C257.704 182.558 253.271 180.759 248.769 178.925C248.942 178.497 249.066 178.194 249.225 177.794C253.727 179.621 258.153 181.421 262.655 183.255Z" fill="url(#paint68_linear_161_390)" fill-opacity="0.5"/>
<path d="M71.3721 236.489C68.8204 240.612 66.3171 244.645 63.7585 248.775C63.3989 248.575 63.0877 248.403 62.6797 248.175C65.2314 244.052 67.7278 240.019 70.2934 235.882C70.653 236.089 70.9641 236.261 71.3721 236.489Z" fill="url(#paint69_linear_161_390)" fill-opacity="0.5"/>
<path d="M6.29297 95.4848C6.41744 95.0711 6.50043 94.7884 6.63873 94.3196C11.2512 95.8019 15.8083 97.2705 20.4416 98.7598C20.3171 99.1597 20.2203 99.4699 20.082 99.925C15.4764 98.4426 10.9538 96.9809 6.29297 95.4848Z" fill="url(#paint70_linear_161_390)" fill-opacity="0.5"/>
<path d="M162.785 251.202C163.213 251.071 163.532 250.967 163.953 250.836C165.067 255.532 166.166 260.158 167.286 264.86C166.927 264.998 166.623 265.115 166.139 265.302C165.011 260.558 163.905 255.911 162.785 251.202Z" fill="url(#paint71_linear_161_390)" fill-opacity="0.5"/>
<path d="M16.4512 199.602C16.223 199.188 16.0777 198.926 15.8564 198.533C20.0886 196.23 24.293 193.948 28.5736 191.625C28.7949 191.963 28.9677 192.238 29.2374 192.659C24.9638 194.976 20.7594 197.258 16.4512 199.602Z" fill="url(#paint72_linear_161_390)" fill-opacity="0.5"/>
<path d="M200.673 235.303C201.074 235.054 201.33 234.903 201.718 234.661C204.311 238.722 206.862 242.721 209.476 246.831C209.145 247.065 208.847 247.272 208.467 247.548C205.832 243.411 203.26 239.37 200.673 235.303Z" fill="url(#paint73_linear_161_390)" fill-opacity="0.5"/>
<path d="M243.382 215.873C243.084 216.232 242.87 216.48 242.587 216.811C238.769 213.867 235.007 210.971 231.163 208C231.398 207.655 231.605 207.358 231.861 206.986C235.713 209.951 239.475 212.86 243.382 215.873Z" fill="url(#paint74_linear_161_390)" fill-opacity="0.5"/>
<path d="M12.9798 192.735C12.7793 192.369 12.6271 192.08 12.3989 191.659C16.797 189.591 21.126 187.557 25.5241 185.495C25.7108 185.854 25.8629 186.15 26.0911 186.578C21.6861 188.639 17.3641 190.673 12.9798 192.735Z" fill="url(#paint75_linear_161_390)" fill-opacity="0.5"/>
<path d="M251.183 172.519C251.349 172.078 251.459 171.796 251.611 171.382C256.175 172.94 260.677 174.478 265.297 176.056C265.179 176.456 265.075 176.801 264.944 177.235C260.325 175.643 255.816 174.105 251.183 172.519Z" fill="url(#paint76_linear_161_390)" fill-opacity="0.5"/>
<path d="M44.9631 214.791C41.3671 218.004 37.8058 221.175 34.196 224.395C33.9125 224.078 33.6843 223.837 33.3662 223.485C36.976 220.265 40.5304 217.094 44.1194 213.888C44.2992 214.019 44.4513 214.095 44.5551 214.212C44.7003 214.37 44.804 214.556 44.9631 214.791Z" fill="url(#paint77_linear_161_390)" fill-opacity="0.5"/>
<path d="M27.4053 54.8335C27.7026 54.475 27.9101 54.2199 28.1936 53.8821C32.0316 56.8054 35.8211 59.6943 39.6798 62.6315C39.4447 62.9693 39.2511 63.2382 38.9745 63.6381C35.1227 60.7078 31.34 57.8259 27.4053 54.8335Z" fill="url(#paint78_linear_161_390)" fill-opacity="0.5"/>
<path d="M24.5489 212.426C24.2723 212.054 24.0925 211.812 23.8159 211.44C27.7784 208.655 31.6993 205.904 35.7862 203.029C35.9107 203.256 36.0006 203.415 36.0836 203.566C36.1665 203.711 36.2564 203.849 36.4017 204.09C32.46 206.869 28.5667 209.606 24.5489 212.426Z" fill="url(#paint79_linear_161_390)" fill-opacity="0.5"/>
<path d="M239.274 197.134C239.537 196.741 239.703 196.492 239.959 196.113C244.053 198.657 248.119 201.174 252.254 203.746C252.054 204.097 251.888 204.38 251.639 204.808C247.517 202.25 243.458 199.726 239.274 197.134Z" fill="url(#paint80_linear_161_390)" fill-opacity="0.5"/>
<path d="M32.2183 48.856C32.5294 48.5043 32.7507 48.2561 33.0412 47.939C36.7132 51.0761 40.3298 54.1649 44.0295 57.3296C43.7805 57.6467 43.5523 57.9294 43.2619 58.2948C39.5692 55.1301 35.9525 52.0413 32.2183 48.856Z" fill="url(#paint81_linear_161_390)" fill-opacity="0.5"/>
<path d="M91.5646 261.647C91.2811 261.613 91.1013 261.62 90.9491 261.565C90.7901 261.51 90.6518 261.406 90.4028 261.268C91.9449 256.745 93.4732 252.257 95.0499 247.644C95.4717 247.789 95.8175 247.906 96.2186 248.044C94.6488 252.629 93.1136 257.125 91.5646 261.647Z" fill="url(#paint82_linear_161_390)" fill-opacity="0.5"/>
<path d="M101.599 249.727C102.034 249.823 102.318 249.885 102.795 249.989C101.495 254.656 100.209 259.255 98.9017 263.957C98.4937 263.84 98.1825 263.757 97.7261 263.626C99.0123 258.993 100.285 254.429 101.599 249.727Z" fill="url(#paint83_linear_161_390)" fill-opacity="0.5"/>
<path d="M215.853 242.535C215.5 242.79 215.23 242.99 214.864 243.259C212.029 239.329 209.228 235.441 206.393 231.511C206.738 231.256 207.008 231.056 207.381 230.78C210.217 234.717 213.017 238.605 215.853 242.535Z" fill="url(#paint84_linear_161_390)" fill-opacity="0.5"/>
<path d="M106.356 265.812C105.865 265.674 105.582 265.591 105.181 265.481C106.204 260.792 107.221 256.152 108.272 251.381C108.68 251.478 109.026 251.553 109.468 251.657C108.424 256.4 107.4 261.041 106.356 265.812Z" fill="url(#paint85_linear_161_390)" fill-opacity="0.5"/>
<path d="M89.7807 245.665C87.9481 250.195 86.1778 254.56 84.3522 259.048C83.958 258.91 83.6192 258.793 83.1904 258.641C85.0161 254.132 86.8002 249.733 88.6189 245.252C89.0269 245.396 89.3381 245.507 89.7807 245.665Z" fill="url(#paint86_linear_161_390)" fill-opacity="0.5"/>
<path d="M14.916 125.518C14.8745 125.939 14.8468 126.27 14.8053 126.725C9.99234 126.332 5.24848 125.946 0.442383 125.553C0.442383 125.16 0.442383 124.87 0.442383 124.387C5.28997 124.643 10.0615 125.153 14.916 125.518Z" fill="url(#paint87_linear_161_390)" fill-opacity="0.5"/>
<path d="M269.397 161.274C269.369 161.543 269.369 161.722 269.321 161.888C269.273 162.046 269.176 162.191 269.058 162.446C264.397 161.426 259.743 160.412 254.993 159.371C255.083 158.971 255.152 158.661 255.262 158.185C260.013 159.226 264.695 160.247 269.397 161.274Z" fill="url(#paint88_linear_161_390)" fill-opacity="0.5"/>
<path d="M267.579 168.727C267.468 169.141 267.378 169.465 267.26 169.906C262.613 168.61 258.029 167.328 253.361 166.025C253.423 165.645 253.471 165.321 253.554 164.818C258.271 166.135 262.883 167.417 267.579 168.727Z" fill="url(#paint89_linear_161_390)" fill-opacity="0.5"/>
<path d="M4.88905 171.196C4.75766 170.789 4.66085 170.472 4.51562 170.038C9.18341 168.762 13.7751 167.5 18.4913 166.211C18.6089 166.597 18.7126 166.942 18.8509 167.383C14.1416 168.665 9.54992 169.92 4.88905 171.196Z" fill="url(#paint90_linear_161_390)" fill-opacity="0.5"/>
<path d="M20.4622 172.768C20.6143 173.147 20.7319 173.45 20.9186 173.905C16.313 175.45 11.7766 176.973 7.16418 178.525C7.01204 178.132 6.89448 177.821 6.72852 177.387C11.3341 175.836 15.8705 174.312 20.4622 172.768Z" fill="url(#paint91_linear_161_390)" fill-opacity="0.5"/>
<path d="M169.417 249.396C169.852 249.278 170.136 249.202 170.592 249.078C171.954 253.67 173.31 258.248 174.7 262.916C174.278 263.054 173.974 263.15 173.538 263.295C172.148 258.628 170.8 254.049 169.417 249.396Z" fill="url(#paint92_linear_161_390)" fill-opacity="0.5"/>
<path d="M31.9625 73.9458C31.6997 74.3388 31.5199 74.6215 31.2848 74.9731C27.1287 72.491 23.0418 70.0503 18.8857 67.5682C19.0863 67.2028 19.2453 66.9132 19.4805 66.4995C23.6365 68.9747 27.7234 71.4154 31.9625 73.9458Z" fill="url(#paint93_linear_161_390)" fill-opacity="0.5"/>
<path d="M227.781 232.841C227.463 233.124 227.214 233.345 226.861 233.662C223.597 230.083 220.375 226.546 217.111 222.968C217.436 222.665 217.678 222.437 218.01 222.127C221.281 225.719 224.51 229.256 227.781 232.841Z" fill="url(#paint94_linear_161_390)" fill-opacity="0.5"/>
<path d="M156.042 252.519C156.478 252.464 156.803 252.416 157.253 252.36C158.103 257.097 158.947 261.758 159.804 266.529C159.369 266.591 159.023 266.646 158.587 266.708C157.73 261.93 156.9 257.262 156.042 252.519Z" fill="url(#paint95_linear_161_390)" fill-opacity="0.5"/>
<path d="M113.922 267.163C113.466 267.087 113.182 267.039 112.726 266.963C113.493 262.178 114.247 257.462 115.021 252.67C115.457 252.753 115.782 252.815 116.218 252.898C115.45 257.655 114.696 262.337 113.922 267.163Z" fill="url(#paint96_linear_161_390)" fill-opacity="0.5"/>
<path d="M121.535 268.204C121.051 268.094 120.726 268.025 120.332 267.942C120.823 263.171 121.314 258.483 121.805 253.746C122.22 253.746 122.538 253.746 123.022 253.746C122.524 258.559 122.04 263.281 121.535 268.204Z" fill="url(#paint97_linear_161_390)" fill-opacity="0.5"/>
<path d="M0.684838 148.574C0.622601 148.188 0.567279 147.857 0.491211 147.375C5.33188 146.919 10.0965 146.471 14.9441 146.023C14.9856 146.471 15.0132 146.802 15.0478 147.237C10.2348 147.678 5.49785 148.126 0.684838 148.574Z" fill="url(#paint98_linear_161_390)" fill-opacity="0.5"/>
<path d="M227.56 212.316C231.225 215.501 234.807 218.617 238.472 221.803C238.203 222.134 237.974 222.416 237.691 222.754C234.026 219.569 230.437 216.446 226.758 213.253C227.034 212.936 227.263 212.667 227.56 212.316Z" fill="url(#paint99_linear_161_390)" fill-opacity="0.5"/>
<path d="M18.5399 105.337C18.3947 105.758 18.2909 106.075 18.1457 106.496C13.4848 105.282 8.88621 104.083 4.20459 102.862C4.29449 102.455 4.36364 102.138 4.46045 101.676C9.19048 102.904 13.8306 104.11 18.5399 105.337Z" fill="url(#paint100_linear_161_390)" fill-opacity="0.5"/>
<path d="M259.591 190.28C259.384 190.708 259.232 191.004 259.052 191.383C254.689 189.315 250.394 187.274 245.996 185.192C246.155 184.813 246.293 184.482 246.473 184.061C250.858 186.137 255.145 188.171 259.591 190.28Z" fill="url(#paint101_linear_161_390)" fill-opacity="0.5"/>
<path d="M12.2674 80.0269C16.6932 82.0332 21.0221 83.9982 25.4548 86.0115C25.2958 86.4114 25.1644 86.7492 24.9984 87.1491C20.5726 85.1427 16.2437 83.1777 11.811 81.1714C11.9701 80.7715 12.1084 80.4336 12.2674 80.0269Z" fill="url(#paint102_linear_161_390)" fill-opacity="0.5"/>
<path d="M152.066 267.68C151.796 267.742 151.513 267.804 151.236 267.866C150.78 266.873 149.694 258.848 149.293 253.608C149.583 253.525 149.895 253.443 150.185 253.36C150.621 254.222 152.149 265.984 152.066 267.68Z" fill="url(#paint103_linear_161_390)" fill-opacity="0.5"/>
<path d="M48.6697 52.2689C48.4 52.586 48.1856 52.848 47.8813 53.2135C44.3615 49.8419 40.8831 46.5256 37.2803 43.0782C37.633 42.7887 37.8888 42.5749 38.2346 42.2922C41.7337 45.6362 45.1775 48.9318 48.6697 52.2689Z" fill="url(#paint104_linear_161_390)" fill-opacity="0.5"/>
<path d="M129.204 268.639C128.776 268.639 128.478 268.639 127.994 268.639C128.215 263.847 128.437 259.11 128.651 254.442C128.803 254.318 128.859 254.229 128.928 254.222C129.184 254.201 129.433 254.215 129.875 254.215C129.647 259.076 129.426 263.861 129.204 268.639Z" fill="url(#paint105_linear_161_390)" fill-opacity="0.5"/>
<path d="M16.9145 159.564C17.0321 159.992 17.1081 160.274 17.2326 160.736C12.4888 161.743 7.81406 162.736 3.0702 163.742C2.93881 163.349 2.84891 163.074 2.69678 162.625C7.39914 161.515 12.0877 160.598 16.9145 159.564Z" fill="url(#paint106_linear_161_390)" fill-opacity="0.5"/>
<path d="M1.15479 117.906C1.25851 117.438 1.32767 117.148 1.42448 116.72C6.17525 117.389 10.8914 118.051 15.6837 118.72C15.6353 119.14 15.6007 119.471 15.5523 119.926C10.7601 119.251 6.04386 118.589 1.15479 117.906Z" fill="url(#paint107_linear_161_390)" fill-opacity="0.5"/>
<path d="M9.86809 185.716C9.69521 185.337 9.56382 185.04 9.36328 184.599C13.8513 182.799 18.2632 181.027 22.7235 179.242C22.8688 179.421 22.9863 179.538 23.0624 179.676C23.1454 179.828 23.1869 179.993 23.3113 180.317C18.8302 182.117 14.3837 183.903 9.86809 185.716Z" fill="url(#paint108_linear_161_390)" fill-opacity="0.5"/>
<path d="M14.522 139.184C14.522 139.639 14.522 139.935 14.522 140.404C9.76432 140.569 5.00664 140.735 0.172881 140.907C0.117559 140.507 0.0691524 140.183 0 139.714C4.84067 139.535 9.60527 139.363 14.522 139.184Z" fill="url(#paint109_linear_161_390)" fill-opacity="0.5"/>
<path d="M0.0761719 133.233C0.0761719 132.765 0.0761719 132.475 0.0761719 132.006C4.87535 132.116 9.62612 132.234 14.4599 132.344C14.4599 132.716 14.4599 133.04 14.4599 133.537C9.71602 133.447 4.96525 133.344 0.0761719 133.233Z" fill="url(#paint110_linear_161_390)" fill-opacity="0.5"/>
<defs>
<linearGradient id="paint0_linear_161_390" x1="137.498" y1="165.124" x2="136.296" y2="224.979" gradientUnits="userSpaceOnUse">
<stop stop-color="white"/>
<stop offset="1" stop-color="white" stop-opacity="0.28"/>
</linearGradient>
<linearGradient id="paint1_linear_161_390" x1="137.522" y1="43.0743" x2="136.585" y2="95.2236" gradientUnits="userSpaceOnUse">
<stop stop-color="white"/>
<stop offset="1" stop-color="white" stop-opacity="0.28"/>
</linearGradient>
<linearGradient id="paint2_linear_161_390" x1="137.145" y1="163.276" x2="136.165" y2="213.489" gradientUnits="userSpaceOnUse">
<stop stop-color="white"/>
<stop offset="1" stop-color="white" stop-opacity="0.28"/>
</linearGradient>
<linearGradient id="paint3_linear_161_390" x1="137.008" y1="54.1844" x2="136.275" y2="96.8782" gradientUnits="userSpaceOnUse">
<stop stop-color="white"/>
<stop offset="1" stop-color="white" stop-opacity="0.28"/>
</linearGradient>
<linearGradient id="paint4_linear_161_390" x1="225.778" y1="117.43" x2="224.576" y2="142.409" gradientUnits="userSpaceOnUse">
<stop stop-color="white"/>
<stop offset="1" stop-color="white" stop-opacity="0.28"/>
</linearGradient>
<linearGradient id="paint5_linear_161_390" x1="116.554" y1="117.437" x2="115.115" y2="142.363" gradientUnits="userSpaceOnUse">
<stop stop-color="white"/>
<stop offset="1" stop-color="white" stop-opacity="0.28"/>
</linearGradient>
<linearGradient id="paint6_linear_161_390" x1="44.7581" y1="117.409" x2="43.3201" y2="142.34" gradientUnits="userSpaceOnUse">
<stop stop-color="white"/>
<stop offset="1" stop-color="white" stop-opacity="0.28"/>
</linearGradient>
<linearGradient id="paint7_linear_161_390" x1="80.6341" y1="117.549" x2="79.2104" y2="142.375" gradientUnits="userSpaceOnUse">
<stop stop-color="white"/>
<stop offset="1" stop-color="white" stop-opacity="0.28"/>
</linearGradient>
<linearGradient id="paint8_linear_161_390" x1="186.986" y1="117.42" x2="185.546" y2="142.353" gradientUnits="userSpaceOnUse">
<stop stop-color="white"/>
<stop offset="1" stop-color="white" stop-opacity="0.28"/>
</linearGradient>
<linearGradient id="paint9_linear_161_390" x1="151.557" y1="117.447" x2="150.13" y2="142.204" gradientUnits="userSpaceOnUse">
<stop stop-color="white"/>
<stop offset="1" stop-color="white" stop-opacity="0.28"/>
</linearGradient>
<linearGradient id="paint10_linear_161_390" x1="156.409" y1="157.177" x2="155.273" y2="174.564" gradientUnits="userSpaceOnUse">
<stop stop-color="white"/>
<stop offset="1" stop-color="white" stop-opacity="0.28"/>
</linearGradient>
<linearGradient id="paint11_linear_161_390" x1="114.542" y1="157.187" x2="113.41" y2="174.572" gradientUnits="userSpaceOnUse">
<stop stop-color="white"/>
<stop offset="1" stop-color="white" stop-opacity="0.28"/>
</linearGradient>
<linearGradient id="paint12_linear_161_390" x1="135.482" y1="157.178" x2="134.358" y2="174.56" gradientUnits="userSpaceOnUse">
<stop stop-color="white"/>
<stop offset="1" stop-color="white" stop-opacity="0.28"/>
</linearGradient>
<linearGradient id="paint13_linear_161_390" x1="89.9747" y1="90.0794" x2="89.6438" y2="100.471" gradientUnits="userSpaceOnUse">
<stop stop-color="white"/>
<stop offset="1" stop-color="white" stop-opacity="0.28"/>
</linearGradient>
<linearGradient id="paint14_linear_161_390" x1="187.482" y1="10.7991" x2="186.739" y2="24.4176" gradientUnits="userSpaceOnUse">
<stop stop-color="white"/>
<stop offset="1" stop-color="white" stop-opacity="0.28"/>
</linearGradient>
<linearGradient id="paint15_linear_161_390" x1="183.61" y1="91.7624" x2="183.315" y2="100.5" gradientUnits="userSpaceOnUse">
<stop stop-color="white"/>
<stop offset="1" stop-color="white" stop-opacity="0.28"/>
</linearGradient>
<linearGradient id="paint16_linear_161_390" x1="265.297" y1="123.322" x2="265.089" y2="130.341" gradientUnits="userSpaceOnUse">
<stop stop-color="white"/>
<stop offset="1" stop-color="white" stop-opacity="0.28"/>
</linearGradient>
<linearGradient id="paint17_linear_161_390" x1="139.45" y1="89.9617" x2="138.896" y2="101.072" gradientUnits="userSpaceOnUse">
<stop stop-color="white"/>
<stop offset="1" stop-color="white" stop-opacity="0.28"/>
</linearGradient>
<linearGradient id="paint18_linear_161_390" x1="98.7862" y1="7.19352" x2="97.9611" y2="19.7673" gradientUnits="userSpaceOnUse">
<stop stop-color="white"/>
<stop offset="1" stop-color="white" stop-opacity="0.28"/>
</linearGradient>
<linearGradient id="paint19_linear_161_390" x1="235.241" y1="47.038" x2="234.625" y2="59.0808" gradientUnits="userSpaceOnUse">
<stop stop-color="white"/>
<stop offset="1" stop-color="white" stop-opacity="0.28"/>
</linearGradient>
<linearGradient id="paint20_linear_161_390" x1="150.448" y1="2.43974" x2="149.474" y2="14.0961" gradientUnits="userSpaceOnUse">
<stop stop-color="white"/>
<stop offset="1" stop-color="white" stop-opacity="0.28"/>
</linearGradient>
<linearGradient id="paint21_linear_161_390" x1="202.573" y1="19.5098" x2="201.918" y2="30.6251" gradientUnits="userSpaceOnUse">
<stop stop-color="white"/>
<stop offset="1" stop-color="white" stop-opacity="0.28"/>
</linearGradient>
<linearGradient id="paint22_linear_161_390" x1="225.483" y1="36.7954" x2="224.963" y2="47.2332" gradientUnits="userSpaceOnUse">
<stop stop-color="white"/>
<stop offset="1" stop-color="white" stop-opacity="0.28"/>
</linearGradient>
<linearGradient id="paint23_linear_161_390" x1="113.621" y1="4.03917" x2="112.713" y2="15.6515" gradientUnits="userSpaceOnUse">
<stop stop-color="white"/>
<stop offset="1" stop-color="white" stop-opacity="0.28"/>
</linearGradient>
<linearGradient id="paint24_linear_161_390" x1="265.172" y1="138.808" x2="264.991" y2="145.404" gradientUnits="userSpaceOnUse">
<stop stop-color="white"/>
<stop offset="1" stop-color="white" stop-opacity="0.28"/>
</linearGradient>
<linearGradient id="paint25_linear_161_390" x1="66.264" y1="24.4626" x2="65.592" y2="36.2292" gradientUnits="userSpaceOnUse">
<stop stop-color="white"/>
<stop offset="1" stop-color="white" stop-opacity="0.28"/>
</linearGradient>
<linearGradient id="paint26_linear_161_390" x1="244.855" y1="60.1383" x2="244.463" y2="69.5441" gradientUnits="userSpaceOnUse">
<stop stop-color="white"/>
<stop offset="1" stop-color="white" stop-opacity="0.28"/>
</linearGradient>
<linearGradient id="paint27_linear_161_390" x1="257.638" y1="85.9979" x2="257.353" y2="94.1939" gradientUnits="userSpaceOnUse">
<stop stop-color="white"/>
<stop offset="1" stop-color="white" stop-opacity="0.28"/>
</linearGradient>
<linearGradient id="paint28_linear_161_390" x1="84.7146" y1="13.0782" x2="83.9651" y2="24.4085" gradientUnits="userSpaceOnUse">
<stop stop-color="white"/>
<stop offset="1" stop-color="white" stop-opacity="0.28"/>
</linearGradient>
<linearGradient id="paint29_linear_161_390" x1="146.425" y1="91.6779" x2="146.028" y2="99.3464" gradientUnits="userSpaceOnUse">
<stop stop-color="white"/>
<stop offset="1" stop-color="white" stop-opacity="0.28"/>
</linearGradient>
<linearGradient id="paint30_linear_161_390" x1="252.667" y1="70.9893" x2="252.335" y2="80.0595" gradientUnits="userSpaceOnUse">
<stop stop-color="white"/>
<stop offset="1" stop-color="white" stop-opacity="0.28"/>
</linearGradient>
<linearGradient id="paint31_linear_161_390" x1="164.741" y1="4.37693" x2="163.881" y2="15.7409" gradientUnits="userSpaceOnUse">
<stop stop-color="white"/>
<stop offset="1" stop-color="white" stop-opacity="0.28"/>
</linearGradient>
<linearGradient id="paint32_linear_161_390" x1="215.646" y1="26.3834" x2="215.005" y2="37.8427" gradientUnits="userSpaceOnUse">
<stop stop-color="white"/>
<stop offset="1" stop-color="white" stop-opacity="0.28"/>
</linearGradient>
<linearGradient id="paint33_linear_161_390" x1="127.404" y1="2.15329" x2="126.382" y2="13.5824" gradientUnits="userSpaceOnUse">
<stop stop-color="white"/>
<stop offset="1" stop-color="white" stop-opacity="0.28"/>
</linearGradient>
<linearGradient id="paint34_linear_161_390" x1="113.712" y1="91.8011" x2="113.35" y2="99.2607" gradientUnits="userSpaceOnUse">
<stop stop-color="white"/>
<stop offset="1" stop-color="white" stop-opacity="0.28"/>
</linearGradient>
<linearGradient id="paint35_linear_161_390" x1="170.179" y1="91.6719" x2="169.652" y2="99.1338" gradientUnits="userSpaceOnUse">
<stop stop-color="white"/>
<stop offset="1" stop-color="white" stop-opacity="0.28"/>
</linearGradient>
<linearGradient id="paint36_linear_161_390" x1="261.287" y1="99.7302" x2="261.031" y2="107.458" gradientUnits="userSpaceOnUse">
<stop stop-color="white"/>
<stop offset="1" stop-color="white" stop-opacity="0.28"/>
</linearGradient>
<linearGradient id="paint37_linear_161_390" x1="156.657" y1="91.7796" x2="156.126" y2="99.178" gradientUnits="userSpaceOnUse">
<stop stop-color="white"/>
<stop offset="1" stop-color="white" stop-opacity="0.28"/>
</linearGradient>
<linearGradient id="paint38_linear_161_390" x1="104.826" y1="91.6865" x2="104.421" y2="99.3059" gradientUnits="userSpaceOnUse">
<stop stop-color="white"/>
<stop offset="1" stop-color="white" stop-opacity="0.28"/>
</linearGradient>
<linearGradient id="paint39_linear_161_390" x1="123.54" y1="91.8251" x2="123.032" y2="99.2114" gradientUnits="userSpaceOnUse">
<stop stop-color="white"/>
<stop offset="1" stop-color="white" stop-opacity="0.28"/>
</linearGradient>
<linearGradient id="paint40_linear_161_390" x1="263.963" y1="112.417" x2="263.902" y2="116.211" gradientUnits="userSpaceOnUse">
<stop stop-color="white"/>
<stop offset="1" stop-color="white" stop-opacity="0.28"/>
</linearGradient>
<linearGradient id="paint41_linear_161_390" x1="162.968" y1="91.764" x2="161.935" y2="99.0438" gradientUnits="userSpaceOnUse">
<stop stop-color="white"/>
<stop offset="1" stop-color="white" stop-opacity="0.28"/>
</linearGradient>
<linearGradient id="paint42_linear_161_390" x1="192.465" y1="243.303" x2="191.564" y2="253.382" gradientUnits="userSpaceOnUse">
<stop stop-color="white"/>
<stop offset="1" stop-color="white" stop-opacity="0.28"/>
</linearGradient>
<linearGradient id="paint43_linear_161_390" x1="179.016" y1="248.672" x2="177.83" y2="259.015" gradientUnits="userSpaceOnUse">
<stop stop-color="white"/>
<stop offset="1" stop-color="white" stop-opacity="0.28"/>
</linearGradient>
<linearGradient id="paint44_linear_161_390" x1="136.221" y1="256.274" x2="131.365" y2="263.717" gradientUnits="userSpaceOnUse">
<stop stop-color="white"/>
<stop offset="1" stop-color="white" stop-opacity="0.28"/>
</linearGradient>
<linearGradient id="paint45_linear_161_390" x1="185.84" y1="246.125" x2="184.812" y2="256.374" gradientUnits="userSpaceOnUse">
<stop stop-color="white"/>
<stop offset="1" stop-color="white" stop-opacity="0.28"/>
</linearGradient>
<linearGradient id="paint46_linear_161_390" x1="44.4178" y1="220.518" x2="44.0337" y2="228.531" gradientUnits="userSpaceOnUse">
<stop stop-color="white"/>
<stop offset="1" stop-color="white" stop-opacity="0.28"/>
</linearGradient>
<linearGradient id="paint47_linear_161_390" x1="227.783" y1="218.868" x2="227.39" y2="227.012" gradientUnits="userSpaceOnUse">
<stop stop-color="white"/>
<stop offset="1" stop-color="white" stop-opacity="0.28"/>
</linearGradient>
<linearGradient id="paint48_linear_161_390" x1="61.064" y1="233.829" x2="60.4617" y2="243.019" gradientUnits="userSpaceOnUse">
<stop stop-color="white"/>
<stop offset="1" stop-color="white" stop-opacity="0.28"/>
</linearGradient>
<linearGradient id="paint49_linear_161_390" x1="48.3556" y1="38.4826" x2="47.9198" y2="46.887" gradientUnits="userSpaceOnUse">
<stop stop-color="white"/>
<stop offset="1" stop-color="white" stop-opacity="0.28"/>
</linearGradient>
<linearGradient id="paint50_linear_161_390" x1="241.685" y1="202.708" x2="241.445" y2="209.471" gradientUnits="userSpaceOnUse">
<stop stop-color="white"/>
<stop offset="1" stop-color="white" stop-opacity="0.28"/>
</linearGradient>
<linearGradient id="paint51_linear_161_390" x1="34.6302" y1="209.964" x2="34.3362" y2="217.293" gradientUnits="userSpaceOnUse">
<stop stop-color="white"/>
<stop offset="1" stop-color="white" stop-opacity="0.28"/>
</linearGradient>
<linearGradient id="paint52_linear_161_390" x1="53.7884" y1="33.5255" x2="53.287" y2="42.2947" gradientUnits="userSpaceOnUse">
<stop stop-color="white"/>
<stop offset="1" stop-color="white" stop-opacity="0.28"/>
</linearGradient>
<linearGradient id="paint53_linear_161_390" x1="29.4743" y1="61.31" x2="29.2385" y2="68.0271" gradientUnits="userSpaceOnUse">
<stop stop-color="white"/>
<stop offset="1" stop-color="white" stop-opacity="0.28"/>
</linearGradient>
<linearGradient id="paint54_linear_161_390" x1="143.498" y1="256.006" x2="140.336" y2="265.658" gradientUnits="userSpaceOnUse">
<stop stop-color="white"/>
<stop offset="1" stop-color="white" stop-opacity="0.28"/>
</linearGradient>
<linearGradient id="paint55_linear_161_390" x1="73.4103" y1="241.152" x2="72.6218" y2="250.876" gradientUnits="userSpaceOnUse">
<stop stop-color="white"/>
<stop offset="1" stop-color="white" stop-opacity="0.28"/>
</linearGradient>
<linearGradient id="paint56_linear_161_390" x1="55.1968" y1="229.594" x2="54.6689" y2="238.493" gradientUnits="userSpaceOnUse">
<stop stop-color="white"/>
<stop offset="1" stop-color="white" stop-opacity="0.28"/>
</linearGradient>
<linearGradient id="paint57_linear_161_390" x1="49.6538" y1="225.064" x2="49.1891" y2="233.669" gradientUnits="userSpaceOnUse">
<stop stop-color="white"/>
<stop offset="1" stop-color="white" stop-opacity="0.28"/>
</linearGradient>
<linearGradient id="paint58_linear_161_390" x1="249.617" y1="191.267" x2="249.443" y2="197.17" gradientUnits="userSpaceOnUse">
<stop stop-color="white"/>
<stop offset="1" stop-color="white" stop-opacity="0.28"/>
</linearGradient>
<linearGradient id="paint59_linear_161_390" x1="9.85333" y1="109.711" x2="9.81276" y2="112.677" gradientUnits="userSpaceOnUse">
<stop stop-color="white"/>
<stop offset="1" stop-color="white" stop-opacity="0.28"/>
</linearGradient>
<linearGradient id="paint60_linear_161_390" x1="198.934" y1="239.976" x2="198.16" y2="249.682" gradientUnits="userSpaceOnUse">
<stop stop-color="white"/>
<stop offset="1" stop-color="white" stop-opacity="0.28"/>
</linearGradient>
<linearGradient id="paint61_linear_161_390" x1="79.8991" y1="244.336" x2="78.988" y2="254.295" gradientUnits="userSpaceOnUse">
<stop stop-color="white"/>
<stop offset="1" stop-color="white" stop-opacity="0.28"/>
</linearGradient>
<linearGradient id="paint62_linear_161_390" x1="217.045" y1="228.252" x2="216.528" y2="237.091" gradientUnits="userSpaceOnUse">
<stop stop-color="white"/>
<stop offset="1" stop-color="white" stop-opacity="0.28"/>
</linearGradient>
<linearGradient id="paint63_linear_161_390" x1="21.9719" y1="74.2424" x2="21.8083" y2="79.993" gradientUnits="userSpaceOnUse">
<stop stop-color="white"/>
<stop offset="1" stop-color="white" stop-opacity="0.28"/>
</linearGradient>
<linearGradient id="paint64_linear_161_390" x1="15.9409" y1="87.9703" x2="15.8364" y2="92.6565" gradientUnits="userSpaceOnUse">
<stop stop-color="white"/>
<stop offset="1" stop-color="white" stop-opacity="0.28"/>
</linearGradient>
<linearGradient id="paint65_linear_161_390" x1="26.3486" y1="198.726" x2="26.1415" y2="205.099" gradientUnits="userSpaceOnUse">
<stop stop-color="white"/>
<stop offset="1" stop-color="white" stop-opacity="0.28"/>
</linearGradient>
<linearGradient id="paint66_linear_161_390" x1="263.654" y1="151.935" x2="263.624" y2="154.494" gradientUnits="userSpaceOnUse">
<stop stop-color="white"/>
<stop offset="1" stop-color="white" stop-opacity="0.28"/>
</linearGradient>
<linearGradient id="paint67_linear_161_390" x1="8.78289" y1="153.274" x2="8.75448" y2="155.767" gradientUnits="userSpaceOnUse">
<stop stop-color="white"/>
<stop offset="1" stop-color="white" stop-opacity="0.28"/>
</linearGradient>
<linearGradient id="paint68_linear_161_390" x1="255.865" y1="178.702" x2="255.752" y2="183.555" gradientUnits="userSpaceOnUse">
<stop stop-color="white"/>
<stop offset="1" stop-color="white" stop-opacity="0.28"/>
</linearGradient>
<linearGradient id="paint69_linear_161_390" x1="67.1214" y1="237.657" x2="66.4365" y2="247.106" gradientUnits="userSpaceOnUse">
<stop stop-color="white"/>
<stop offset="1" stop-color="white" stop-opacity="0.28"/>
</linearGradient>
<linearGradient id="paint70_linear_161_390" x1="13.5227" y1="95.0915" x2="13.4428" y2="99.2196" gradientUnits="userSpaceOnUse">
<stop stop-color="white"/>
<stop offset="1" stop-color="white" stop-opacity="0.28"/>
</linearGradient>
<linearGradient id="paint71_linear_161_390" x1="165.085" y1="252.828" x2="163.452" y2="263.229" gradientUnits="userSpaceOnUse">
<stop stop-color="white"/>
<stop offset="1" stop-color="white" stop-opacity="0.28"/>
</linearGradient>
<linearGradient id="paint72_linear_161_390" x1="22.694" y1="192.723" x2="22.5229" y2="198.595" gradientUnits="userSpaceOnUse">
<stop stop-color="white"/>
<stop offset="1" stop-color="white" stop-opacity="0.28"/>
</linearGradient>
<linearGradient id="paint73_linear_161_390" x1="205.172" y1="236.436" x2="204.496" y2="245.881" gradientUnits="userSpaceOnUse">
<stop stop-color="white"/>
<stop offset="1" stop-color="white" stop-opacity="0.28"/>
</linearGradient>
<linearGradient id="paint74_linear_161_390" x1="237.406" y1="208.339" x2="237.122" y2="215.566" gradientUnits="userSpaceOnUse">
<stop stop-color="white"/>
<stop offset="1" stop-color="white" stop-opacity="0.28"/>
</linearGradient>
<linearGradient id="paint75_linear_161_390" x1="19.3955" y1="186.492" x2="19.2578" y2="191.822" gradientUnits="userSpaceOnUse">
<stop stop-color="white"/>
<stop offset="1" stop-color="white" stop-opacity="0.28"/>
</linearGradient>
<linearGradient id="paint76_linear_161_390" x1="258.395" y1="172.188" x2="258.307" y2="176.499" gradientUnits="userSpaceOnUse">
<stop stop-color="white"/>
<stop offset="1" stop-color="white" stop-opacity="0.28"/>
</linearGradient>
<linearGradient id="paint77_linear_161_390" x1="39.2921" y1="215.335" x2="38.95" y2="223.061" gradientUnits="userSpaceOnUse">
<stop stop-color="white"/>
<stop offset="1" stop-color="white" stop-opacity="0.28"/>
</linearGradient>
<linearGradient id="paint78_linear_161_390" x1="33.6774" y1="55.2255" x2="33.3987" y2="62.4023" gradientUnits="userSpaceOnUse">
<stop stop-color="white"/>
<stop offset="1" stop-color="white" stop-opacity="0.28"/>
</linearGradient>
<linearGradient id="paint79_linear_161_390" x1="30.2471" y1="204.323" x2="29.9948" y2="211.237" gradientUnits="userSpaceOnUse">
<stop stop-color="white"/>
<stop offset="1" stop-color="white" stop-opacity="0.28"/>
</linearGradient>
<linearGradient id="paint80_linear_161_390" x1="245.907" y1="197.311" x2="245.698" y2="203.709" gradientUnits="userSpaceOnUse">
<stop stop-color="white"/>
<stop offset="1" stop-color="white" stop-opacity="0.28"/>
</linearGradient>
<linearGradient id="paint81_linear_161_390" x1="38.2537" y1="49.365" x2="37.9273" y2="56.9806" gradientUnits="userSpaceOnUse">
<stop stop-color="white"/>
<stop offset="1" stop-color="white" stop-opacity="0.28"/>
</linearGradient>
<linearGradient id="paint82_linear_161_390" x1="93.3746" y1="249.573" x2="92.1772" y2="259.748" gradientUnits="userSpaceOnUse">
<stop stop-color="white"/>
<stop offset="1" stop-color="white" stop-opacity="0.28"/>
</linearGradient>
<linearGradient id="paint83_linear_161_390" x1="100.316" y1="251.686" x2="98.9043" y2="261.977" gradientUnits="userSpaceOnUse">
<stop stop-color="white"/>
<stop offset="1" stop-color="white" stop-opacity="0.28"/>
</linearGradient>
<linearGradient id="paint84_linear_161_390" x1="211.227" y1="232.498" x2="210.636" y2="241.654" gradientUnits="userSpaceOnUse">
<stop stop-color="white"/>
<stop offset="1" stop-color="white" stop-opacity="0.28"/>
</linearGradient>
<linearGradient id="paint85_linear_161_390" x1="107.372" y1="253.368" x2="105.669" y2="263.72" gradientUnits="userSpaceOnUse">
<stop stop-color="white"/>
<stop offset="1" stop-color="white" stop-opacity="0.28"/>
</linearGradient>
<linearGradient id="paint86_linear_161_390" x1="86.558" y1="247.152" x2="85.5288" y2="257.21" gradientUnits="userSpaceOnUse">
<stop stop-color="white"/>
<stop offset="1" stop-color="white" stop-opacity="0.28"/>
</linearGradient>
<linearGradient id="paint87_linear_161_390" x1="7.83824" y1="124.709" x2="7.82465" y2="126.431" gradientUnits="userSpaceOnUse">
<stop stop-color="white"/>
<stop offset="1" stop-color="white" stop-opacity="0.28"/>
</linearGradient>
<linearGradient id="paint88_linear_161_390" x1="262.353" y1="158.772" x2="262.308" y2="161.911" gradientUnits="userSpaceOnUse">
<stop stop-color="white"/>
<stop offset="1" stop-color="white" stop-opacity="0.28"/>
</linearGradient>
<linearGradient id="paint89_linear_161_390" x1="260.626" y1="165.519" x2="260.56" y2="169.266" gradientUnits="userSpaceOnUse">
<stop stop-color="white"/>
<stop offset="1" stop-color="white" stop-opacity="0.28"/>
</linearGradient>
<linearGradient id="paint90_linear_161_390" x1="11.8408" y1="166.897" x2="11.7784" y2="170.569" gradientUnits="userSpaceOnUse">
<stop stop-color="white"/>
<stop offset="1" stop-color="white" stop-opacity="0.28"/>
</linearGradient>
<linearGradient id="paint91_linear_161_390" x1="13.9795" y1="173.56" x2="13.8954" y2="177.8" gradientUnits="userSpaceOnUse">
<stop stop-color="white"/>
<stop offset="1" stop-color="white" stop-opacity="0.28"/>
</linearGradient>
<linearGradient id="paint92_linear_161_390" x1="172.116" y1="251.036" x2="170.762" y2="261.332" gradientUnits="userSpaceOnUse">
<stop stop-color="white"/>
<stop offset="1" stop-color="white" stop-opacity="0.28"/>
</linearGradient>
<linearGradient id="paint93_linear_161_390" x1="25.5678" y1="67.6664" x2="25.3703" y2="73.9029" gradientUnits="userSpaceOnUse">
<stop stop-color="white"/>
<stop offset="1" stop-color="white" stop-opacity="0.28"/>
</linearGradient>
<linearGradient id="paint94_linear_161_390" x1="222.563" y1="223.715" x2="222.115" y2="232.19" gradientUnits="userSpaceOnUse">
<stop stop-color="white"/>
<stop offset="1" stop-color="white" stop-opacity="0.28"/>
</linearGradient>
<linearGradient id="paint95_linear_161_390" x1="157.965" y1="254.336" x2="156.061" y2="264.552" gradientUnits="userSpaceOnUse">
<stop stop-color="white"/>
<stop offset="1" stop-color="white" stop-opacity="0.28"/>
</linearGradient>
<linearGradient id="paint96_linear_161_390" x1="114.51" y1="254.666" x2="112.43" y2="264.922" gradientUnits="userSpaceOnUse">
<stop stop-color="white"/>
<stop offset="1" stop-color="white" stop-opacity="0.28"/>
</linearGradient>
<linearGradient id="paint97_linear_161_390" x1="121.707" y1="255.737" x2="119.089" y2="265.701" gradientUnits="userSpaceOnUse">
<stop stop-color="white"/>
<stop offset="1" stop-color="white" stop-opacity="0.28"/>
</linearGradient>
<linearGradient id="paint98_linear_161_390" x1="7.92947" y1="146.374" x2="7.91337" y2="148.254" gradientUnits="userSpaceOnUse">
<stop stop-color="white"/>
<stop offset="1" stop-color="white" stop-opacity="0.28"/>
</linearGradient>
<linearGradient id="paint99_linear_161_390" x1="232.744" y1="213.753" x2="232.409" y2="221.429" gradientUnits="userSpaceOnUse">
<stop stop-color="white"/>
<stop offset="1" stop-color="white" stop-opacity="0.28"/>
</linearGradient>
<linearGradient id="paint100_linear_161_390" x1="11.5298" y1="102.34" x2="11.4714" y2="105.89" gradientUnits="userSpaceOnUse">
<stop stop-color="white"/>
<stop offset="1" stop-color="white" stop-opacity="0.28"/>
</linearGradient>
<linearGradient id="paint101_linear_161_390" x1="252.943" y1="185.07" x2="252.801" y2="190.46" gradientUnits="userSpaceOnUse">
<stop stop-color="white"/>
<stop offset="1" stop-color="white" stop-opacity="0.28"/>
</linearGradient>
<linearGradient id="paint102_linear_161_390" x1="18.7829" y1="81.0076" x2="18.6491" y2="86.2514" gradientUnits="userSpaceOnUse">
<stop stop-color="white"/>
<stop offset="1" stop-color="white" stop-opacity="0.28"/>
</linearGradient>
<linearGradient id="paint103_linear_161_390" x1="150.712" y1="255.357" x2="148.149" y2="265.391" gradientUnits="userSpaceOnUse">
<stop stop-color="white"/>
<stop offset="1" stop-color="white" stop-opacity="0.28"/>
</linearGradient>
<linearGradient id="paint104_linear_161_390" x1="43.1001" y1="43.7961" x2="42.7239" y2="51.8246" gradientUnits="userSpaceOnUse">
<stop stop-color="white"/>
<stop offset="1" stop-color="white" stop-opacity="0.28"/>
</linearGradient>
<linearGradient id="paint105_linear_161_390" x1="128.955" y1="256.197" x2="125.461" y2="265.517" gradientUnits="userSpaceOnUse">
<stop stop-color="white"/>
<stop offset="1" stop-color="white" stop-opacity="0.28"/>
</linearGradient>
<linearGradient id="paint106_linear_161_390" x1="10.1244" y1="160.14" x2="10.0812" y2="163.217" gradientUnits="userSpaceOnUse">
<stop stop-color="white"/>
<stop offset="1" stop-color="white" stop-opacity="0.28"/>
</linearGradient>
<linearGradient id="paint107_linear_161_390" x1="8.57891" y1="117.162" x2="8.55344" y2="119.524" gradientUnits="userSpaceOnUse">
<stop stop-color="white"/>
<stop offset="1" stop-color="white" stop-opacity="0.28"/>
</linearGradient>
<linearGradient id="paint108_linear_161_390" x1="16.4906" y1="180.133" x2="16.3824" y2="184.9" gradientUnits="userSpaceOnUse">
<stop stop-color="white"/>
<stop offset="1" stop-color="white" stop-opacity="0.28"/>
</linearGradient>
<linearGradient id="paint109_linear_161_390" x1="7.42059" y1="139.421" x2="7.41322" y2="140.691" gradientUnits="userSpaceOnUse">
<stop stop-color="white"/>
<stop offset="1" stop-color="white" stop-opacity="0.28"/>
</linearGradient>
<linearGradient id="paint110_linear_161_390" x1="7.42609" y1="132.217" x2="7.42022" y2="133.345" gradientUnits="userSpaceOnUse">
<stop stop-color="white"/>
<stop offset="1" stop-color="white" stop-opacity="0.28"/>
</linearGradient>
</defs>
</svg>
